<?xml version="1.0" encoding="utf-8"?>
<!-- Generator: Adobe Illustrator 21.0.0, SVG Export Plug-In . SVG Version: 6.00 Build 0)  -->
<svg version="1.2" baseProfile="tiny" id="Layer_1" xmlns="http://www.w3.org/2000/svg" xmlns:xlink="http://www.w3.org/1999/xlink"
	 x="0px" y="0px" viewBox="0 0 1588 1254" xml:space="preserve">
<polygon points="1407.333374,126 207.3333282,126 207.3333282,826 258.0934753,826 217.3333282,925.862854 226.0751495,925.862854 
	266.6018982,826 326.4178162,826 326.4178162,1127.1046143 334.2601013,1127.1046143 334.2601013,826 410.6492004,826 
	410.6492004,925.862854 418.6916199,925.862854 418.6916199,826 439.1199646,826 439.1199646,925.862854 447.1602478,925.862854 
	447.1602478,826 531.6048584,826 531.6048584,925.862854 539.1898804,925.862854 539.1898804,826 589.892334,826 
	589.892334,925.862854 597.9348145,925.862854 597.9348145,826 644.0018311,826 686.1884766,925.862854 694.4838257,925.862854 
	652.399231,826 791.2022095,826 791.2022095,925.862854 799.2446899,925.862854 799.2446899,826 820.1700439,826 
	820.1700439,925.8540649 828.2124634,925.8540649 828.2124634,826 837.9246216,826 880.1112671,925.862854 888.4066772,925.862854 
	846.3220215,826 922.7712402,826 922.7712402,925.862854 930.8137207,925.862854 930.8137207,826 944.6730347,826 
	944.6730347,925.8540649 952.5153809,925.8540649 952.5153809,826 1025.1988525,826 1025.1988525,925.8540649 
	1033.2390137,925.8540649 1033.2390137,826 1107.2397461,826 1107.2397461,925.862854 1115.1173096,925.862854 1115.1173096,826 
	1240.1546631,826 1240.1546631,925.862854 1247.7397461,925.862854 1247.7397461,829.9204712 1288.270874,925.862854 
	1296.5662842,925.862854 1254.4816895,826 1389.748291,826 1389.748291,925.862854 1397.333374,925.862854 1397.333374,826 
	1407.333374,826 "/>
</svg>
