<?xml version="1.0" encoding="utf-8"?>
<!-- Generator: Adobe Illustrator 21.0.0, SVG Export Plug-In . SVG Version: 6.00 Build 0)  -->
<svg version="1.2" baseProfile="tiny" id="Layer_1" xmlns="http://www.w3.org/2000/svg" xmlns:xlink="http://www.w3.org/1999/xlink"
	 x="0px" y="0px" viewBox="0 0 960 196.0236206" xml:space="preserve">
<g>
	<polygon points="17.0092697,17.6479645 17.0092697,21.6455803 17.7990036,21.6455803 17.7990036,17.6479645 17.0092697,17.6479645 
			"/>
	<g>
		<polygon points="16.1019421,16.6444931 33.2166748,16.6444931 33.2166748,16.3009834 16.1019421,16.3009834 
			16.1019421,16.6444931 		"/>
		<polygon points="20.2440948,13.6698923 28.6888218,12.4327631 28.6390305,12.0928822 20.1943035,13.3300104 
			20.2440948,13.6698923 		"/>
		<polygon points="20.2440948,18.8582668 28.6888218,20.095396 28.6390305,20.4352779 20.1943035,19.1981487 20.2440948,18.8582668 
					"/>
		<path d="M29.6124706,9.5300722l-15.4110718,1.4481812l-2.2339735,2.2293701l-0.2576275,3.3224478l0.2333727,3.0934448
			l2.2622709,2.1148682l15.4070292,1.3336792v-1.7949219l3.4057217,0.666687l0.6457024-5.4137573l-0.6295319-5.6427603
			l-3.4218922,0.4376831V9.5300722z M12.8171654,19.1450005l-0.2147284-2.6149292l0.2147284-2.8439322l0.3610725-0.2755737
			l2.2619982,3.1195059l-2.2619982,3.0050049L12.8171654,19.1450005z M32.7102737,16.5300713l-0.5181808,4.3102417
			l-3.5796223-0.682312v1.8300781L14.5424919,20.76054l-0.7018394-0.5901489l2.7755604-3.6403198l-2.7833853-3.8693228
			l0.710969-0.8191528l14.0686741-1.2275391v1.8300781l3.5796223-0.4533081L32.7102737,16.5300713z"/>
	</g>
</g>
<g>
</g>
<g>
</g>
<g>
</g>
<g>
</g>
<g>
</g>
<g>
</g>
<g>
</g>
<g>
</g>
<g>
</g>
<g>
</g>
<g>
</g>
<g>
</g>
<g>
</g>
<g>
</g>
<g>
</g>
</svg>
