<?xml version="1.0" encoding="utf-8"?>
<!-- Generator: Adobe Illustrator 21.0.0, SVG Export Plug-In . SVG Version: 6.00 Build 0)  -->
<svg version="1.2" baseProfile="tiny" id="Layer_1" xmlns="http://www.w3.org/2000/svg" xmlns:xlink="http://www.w3.org/1999/xlink"
	 x="0px" y="0px" viewBox="0 0 960 196.0236206" xml:space="preserve">
<g>
	<polygon points="7.7777629,6.4979272 7.7777629,10.4955444 8.5674973,10.4955444 8.5674973,6.4979272 7.7777629,6.4979272 	"/>
	<g>
		<polygon points="12.3392963,3.2895939 12.3392963,10.1020937 12.682806,10.1020937 12.682806,3.2895939 12.3392963,3.2895939 		
			"/>
		<path d="M12.0764694,3.0487084L6.488874,2.5077424L5.1015611,2.7707753L3.1582756,2.3606627L2.3809628,4.1840754
			l1.103286,2.6201324l-1.103286,2.6133528l0.7773128,1.8200235l1.9432855-0.411808l1.3873129,0.2621851l5.5875955-0.5413885
			l11.7756062,1.675293l0.6500874-5.4176579l-0.6500874-5.4242253L12.0764694,3.0487084z M23.0765057,11.2237282
			L12.1505404,9.666667l-0.0531569-0.0072002l-5.5666809,0.5319891L5.0928454,9.9169188l-1.4029975,0.2935991L3.3517323,9.4182425
			l1.1128144-2.6140347L3.3517323,4.1834979l0.3381157-0.7989471l1.4029975,0.2938089l1.4378572-0.2741125l5.5666809,0.532836
			l0.0531569-0.0055046L23.0765057,2.377908l0.5333138,4.4263L23.0765057,11.2237282z"/>
	</g>
</g>
</svg>
