<?xml version="1.0" encoding="utf-8"?>
<!-- Generator: Adobe Illustrator 21.0.0, SVG Export Plug-In . SVG Version: 6.00 Build 0)  -->
<svg version="1.2" baseProfile="tiny" id="Layer_1" xmlns="http://www.w3.org/2000/svg" xmlns:xlink="http://www.w3.org/1999/xlink"
	 x="0px" y="0px" viewBox="0 0 960 196.0236206" xml:space="preserve">
<g>
	<polygon points="20.1129646,13.5806904 20.1129646,17.5783081 20.9026985,17.5783081 20.9026985,13.5806904 20.1129646,13.5806904 
			"/>
	<g>
		<polygon points="8.6144648,17.1018658 11.6642561,17.4961185 11.6144648,17.8359985 8.5646734,17.4417458 8.6144648,17.1018658 		
			"/>
		<polygon points="8.6144648,7.4999948 11.6642561,7.105742 11.6144648,6.765861 8.5646734,7.1601133 8.6144648,7.4999948 		"/>
		<path d="M4.0974007,5.2889066L3.4650667,9.177392l7.4672041,3.106555l-7.4672041,3.1202698l0.632334,3.8953419
			l4.2905369,3.2423306l3.0029354-4.2643223l13.4907093-0.2702446l0.6252804-5.7233753l-0.6252804-5.7105155l-13.4907093-0.25739
			l-3.0029354-4.266037L4.0974007,5.2889066z M10.9146366,7.1894398L24.070219,7.4620619l0.5388508,4.8218851l-0.5388508,4.8355999
			l-13.1555824,0.27948l-2.7260141,3.8587875l-3.256927-2.4731407L4.54879,15.9231634l7.9590416-3.1481304v-0.491086v-0.4636574
			L4.54879,8.6713009l0.5468287-2.8623652L8.2705841,3.334079L10.9146366,7.1894398z"/>
	</g>
</g>
</svg>
