<?xml version="1.0" encoding="utf-8"?>
<!-- Generator: Adobe Illustrator 21.0.0, SVG Export Plug-In . SVG Version: 6.00 Build 0)  -->
<svg version="1.2" baseProfile="tiny" id="Layer_1" xmlns="http://www.w3.org/2000/svg" xmlns:xlink="http://www.w3.org/1999/xlink"
	 x="0px" y="0px" viewBox="0 0 34 33" xml:space="preserve">
<g>
	<polygon points="24.7213535,10.6243486 30.5758457,7.0013022 24.7213535,3.3792317 24.1793613,4.2552085 28.6183262,7.0013022 
		24.1793613,9.7483721 	"/>
	<path d="M11.5870771,16.1369228v-0.3518076c0-1.1057739-0.2702637-1.9551392-0.8103027-2.5474243
		c-0.5402832-0.5922852-1.3373413-0.8887329-2.3914795-0.8887329c-1.0545049,0-1.8518682,0.2964478-2.3918462,0.8887329
		s-0.8099976,1.4416504-0.8099976,2.5474243v0.7417612h2.0302124v-0.8782969c0-0.4944458,0.1008301-0.8425903,0.3025513-1.0443115
		c0.2017822-0.2017212,0.4717407-0.3025513,0.8103032-0.3025513c0.3382568,0,0.6082764,0.1069946,0.8103027,0.3216553
		c0.2017212,0.21521,0.3026123,0.62854,0.3026123,1.2398682v0.7614145c0,0.5467529-0.1140747,0.9243774-0.3416748,1.1322632
		c-0.2278442,0.2084961-0.5436401,0.312439-0.9468384,0.312439h-0.839478v1.9526978h0.7223516
		c0.4944458,0,0.8521118,0.1297607,1.0738525,0.3905029c0.2210693,0.2601929,0.3317871,0.7091675,0.3317871,1.3469238v1.0738525
		c0,0.6119385-0.1008911,1.0215454-0.3026123,1.2300415c-0.2020264,0.2078857-0.4720459,0.312439-0.8103027,0.312439
		c-0.3385625,0-0.608521-0.1008911-0.8103032-0.3026123c-0.2017212-0.2017212-0.3025513-0.5498047-0.3025513-1.0449219v-1.2687988
		H5.1834512v1.1322632c0,1.1064453,0.2700195,1.9558105,0.8099976,2.5480347
		c0.539978,0.5922852,1.3373413,0.8881226,2.3918462,0.8881226c1.0541382,0,1.8511963-0.2958374,2.3914795-0.8881226
		c0.5400391-0.5922241,0.8103027-1.4415894,0.8103027-2.5480347v-1.0738525c0-0.7029419-0.1140747-1.2982788-0.3416138-1.7860107
		c-0.2279053-0.4883423-0.6150513-0.8493652-1.1618042-1.0836792
		C11.0858564,18.5318203,11.5870771,17.5945644,11.5870771,16.1369228z"/>
	<path d="M19.376688,16.1369228v-0.3518076c0-1.1057739-0.2702637-1.9551392-0.8103027-2.5474243
		c-0.539978-0.5922852-1.3373413-0.8887329-2.3914795-0.8887329c-1.119689,0-1.9459829,0.3026123-2.4794912,0.9077759
		c-0.5338745,0.6052246-0.8004761,1.4871826-0.8004761,2.645874v6.9891367c0,1.1064453,0.2798462,1.9558105,0.8395386,2.5480347
		c0.5593262,0.5922852,1.3665771,0.8881226,2.4210196,0.8881226c1.0541382,0,1.861084-0.2958374,2.4207764-0.8881226
		c0.5593262-0.5922241,0.8394775-1.4415894,0.8394775-2.5480347v-2.4988403c0-1.0153809-0.1986694-1.7897339-0.5953369-2.3235474
		c-0.3973389-0.5332642-0.9926758-0.8001709-1.7863159-0.8001709c-0.9505615,0-1.6141348,0.4034424-1.9914541,1.2103882v-2.4988413
		c0-0.6506958,0.1039429-1.0935669,0.3123779-1.3278809c0.2078857-0.234314,0.5006714-0.3511353,0.8786001-0.3511353
		c0.3382568,0,0.6082764,0.1008301,0.8099976,0.3025513s0.3025513,0.5498657,0.3025513,1.0443115v0.4883432H19.376688z
		 M15.3451948,19.5238857c0.2017212-0.2017212,0.4714355-0.3026123,0.8103018-0.3026123
		c0.3382568,0,0.6082764,0.1008911,0.8099976,0.3026123c0.2017212,0.2023315,0.3026123,0.5498047,0.3026123,1.0443115v2.460083
		c0,0.4951172-0.1008911,0.8395386-0.3026123,1.0350952c-0.2017212,0.1949463-0.4717407,0.2927246-0.8099976,0.2927246
		c-0.3388662,0-0.6085806-0.0977783-0.8103018-0.2927246c-0.2020264-0.1955566-0.3025513-0.539978-0.3025513-1.0350952v-2.460083
		C15.0426435,20.0736904,15.1431684,19.7262173,15.3451948,19.5238857z"/>
	<path d="M20.5870762,15.7851152v7.1066294c0,1.1064453,0.2798462,1.9558105,0.8394775,2.5480347
		c0.5593872,0.5922852,1.3666382,0.8881226,2.4210815,0.8881226c1.0541382,0,1.861084-0.2958374,2.4207153-0.8881226
		c0.5593872-0.5922241,0.8395386-1.4415894,0.8395386-2.5480347v-7.1066294c0-1.1057739-0.2801514-1.9551392-0.8395386-2.5474243
		c-0.5596313-0.5922852-1.3665771-0.8887329-2.4207153-0.8887329c-1.0544434,0-1.8616943,0.2964478-2.4210815,0.8887329
		C20.8669224,13.8299761,20.5870762,14.6793413,20.5870762,15.7851152z M22.7347202,15.6485796
		c0-0.4944458,0.1005859-0.8425903,0.3026123-1.0443115c0.2017212-0.2017212,0.4717407-0.3025513,0.8103027-0.3025513
		c0.3382568,0,0.6082764,0.1008301,0.8099976,0.3025513s0.3025513,0.5498657,0.3025513,1.0443115v7.3797007
		c0,0.4951172-0.1008301,0.8432007-0.3025513,1.0449219s-0.4717407,0.3026123-0.8099976,0.3026123
		c-0.338562,0-0.6085815-0.1008911-0.8103027-0.3026123c-0.2020264-0.2017212-0.3026123-0.5498047-0.3026123-1.0449219V15.6485796z"
		/>
	<path d="M31.315836,10.9822588c-0.2589722-0.1821899-0.6322632-0.2733765-1.1199951-0.2733765
		c-0.487854,0-0.8613281,0.0911865-1.1201172,0.2733765c-0.2589722,0.1821899-0.3884277,0.4434814-0.3884277,0.7836914v2.1862183
		c0,0.3403931,0.1294556,0.6016846,0.3884277,0.7838745c0.1642456,0.1156006,0.3915405,0.1810913,0.6480713,0.2233276v14.3163462
		H2.6852214V7.481771h20.7509766V6.5374351H1.7413737v23.6826172h28.9262695V14.9594316
		c0.2564697-0.0422363,0.4838257-0.1077271,0.6481934-0.2233887c0.2587891-0.1821899,0.3884277-0.4434814,0.3884277-0.7838745
		v-2.1862183C31.7042637,11.4257402,31.574625,11.1644487,31.315836,10.9822588z M30.7106113,13.9942217
		c0,0.1522827-0.0466919,0.2593384-0.1400146,0.3214111s-0.2182617,0.0930786-0.3747559,0.0930786
		c-0.1566162,0-0.2815552-0.0310059-0.3748779-0.0930786c-0.0935059-0.0620728-0.1400146-0.1691284-0.1400146-0.3214111V11.723958
		c0-0.1521606,0.0465088-0.2592163,0.1400146-0.3212891c0.0933228-0.0620728,0.2182617-0.0930786,0.3748779-0.0930786
		c0.1564941,0,0.2814331,0.0310059,0.3747559,0.0930786s0.1400146,0.1691284,0.1400146,0.3212891V13.9942217z"/>
</g>
<g>
</g>
<g>
</g>
<g>
</g>
<g>
</g>
<g>
</g>
<g>
</g>
<g>
</g>
<g>
</g>
<g>
</g>
<g>
</g>
<g>
</g>
<g>
</g>
<g>
</g>
<g>
</g>
<g>
</g>
</svg>
