<?xml version="1.0" encoding="utf-8"?>
<!-- Generator: Adobe Illustrator 21.0.0, SVG Export Plug-In . SVG Version: 6.00 Build 0)  -->
<svg version="1.2" baseProfile="tiny" id="Layer_1" xmlns="http://www.w3.org/2000/svg" xmlns:xlink="http://www.w3.org/1999/xlink"
	 x="0px" y="0px" viewBox="0 0 960 196.0236206" xml:space="preserve">
<path d="M18.3862305,10.6826172c0,1.5361328-0.0175781,2.5976563-0.0546875,3.1855469
	c-0.0605469,1.3925781-0.4746094,2.4726563-1.2421875,3.2402344s-1.8417969,1.1816406-3.2211914,1.2421875
	c-0.6005859,0.0361328-1.6625977,0.0537109-3.1860352,0.0537109c-1.5244141,0-2.5864258-0.0175781-3.1860352-0.0537109
	c-1.3920898-0.0722656-2.472168-0.4863281-3.2402344-1.2421875s-1.1821289-1.8359375-1.2416992-3.2402344
	c-0.0361328-0.5878906-0.0541992-1.6494141-0.0541992-3.1855469s0.0180664-2.5976563,0.0541992-3.1865234
	C3.0737305,6.1044922,3.487793,5.0244141,4.2558594,4.2568359c0.7680664-0.7685547,1.8481445-1.1826172,3.2402344-1.2421875
	c0.5878906-0.0361328,1.6499023-0.0546875,3.1860352-0.0546875c1.5356445,0,2.5976563,0.0185547,3.1860352,0.0546875
	C15.2597656,3.0859375,16.3339844,3.5,17.0893555,4.2568359c0.7558594,0.7558594,1.1699219,1.8359375,1.2421875,3.2392578
	C18.3686523,8.0849609,18.3862305,9.1464844,18.3862305,10.6826172z M10.6821289,4.3466797c-0.0483398,0-0.3061523,0-0.7739258,0
	H8.8461914c-0.2402344,0-0.5644531,0.0117188-0.972168,0.0361328c-0.4082031,0.0234375-0.75,0.0537109-1.0258789,0.0898438
	C6.5717773,4.5087891,6.3320313,4.5742188,6.1279297,4.6708984C5.7919922,4.8027344,5.4980469,4.9941406,5.2460938,5.2460938
	s-0.4501953,0.546875-0.5942383,0.8828125C4.5800781,6.3203125,4.5195313,6.5605469,4.472168,6.8486328
	C4.4238281,7.1367188,4.3876953,7.484375,4.3637695,7.8925781S4.3339844,8.6181641,4.3461914,8.8466797
	c0.0117188,0.2275391,0.0117188,0.5820313,0,1.0615234c-0.012207,0.4804688-0.012207,0.7382813,0,0.7744141
	c0.0117188,0.0361328,0.0117188,0.2939453,0,0.7734375c-0.012207,0.4804688-0.012207,0.8349609,0,1.0625
	c0.0117188,0.2275391,0.0175781,0.5458984,0.0175781,0.9541016s0.0361328,0.7558594,0.1083984,1.0439453l0.1796875,0.7197266
	c0.144043,0.3359375,0.3422852,0.6298828,0.5942383,0.8818359S5.7919922,16.5625,6.1279297,16.6943359
	c0.1918945,0.0722656,0.4321289,0.1376953,0.7202148,0.1982422c0.2875977,0.0595703,0.6298828,0.0898438,1.0258789,0.0898438
	s0.7197266,0.0117188,0.972168,0.0361328c0.2519531,0.0234375,0.6054688,0.0234375,1.0620117,0
	c0.4555664-0.0244141,0.7133789-0.0244141,0.7739258,0c0.0595703,0.0234375,0.3115234,0.0234375,0.7558594,0
	c0.4438477-0.0244141,0.7978516-0.0244141,1.0620117,0c0.2636719,0.0234375,0.5878906,0.0117188,0.972168-0.0361328
	c0.3837891-0.0478516,0.7314453-0.078125,1.0439453-0.0898438c0.3115234-0.0117188,0.5458984-0.078125,0.7016602-0.1982422
	c0.3359375-0.1318359,0.6362305-0.3242188,0.9003906-0.5761719c0.2636719-0.2519531,0.4555664-0.5458984,0.5756836-0.8818359
	c0.0722656-0.1914063,0.1318359-0.4316406,0.1806641-0.7197266c0.046875-0.2880859,0.0839844-0.6357422,0.1074219-1.0439453
	s0.0292969-0.7265625,0.0175781-0.9541016s-0.0117188-0.5820313,0-1.0625c0.0117188-0.4794922,0.0117188-0.7373047,0-0.7734375
	s-0.0117188-0.2939453,0-0.7744141c0.0117188-0.4794922,0.0117188-0.8339844,0-1.0615234
	c-0.0117188-0.2285156-0.0175781-0.5458984-0.0175781-0.9541016s-0.0361328-0.7558594-0.1074219-1.0439453l-0.1806641-0.7197266
	c-0.1318359-0.3359375-0.3237305-0.6308594-0.5756836-0.8828125c-0.2524414-0.2519531-0.5522461-0.4433594-0.9003906-0.5751953
	c-0.1918945-0.0722656-0.4257813-0.1386719-0.7016602-0.1982422c-0.2763672-0.0605469-0.6240234-0.0898438-1.0439453-0.0898438
	c-0.4204102,0-0.7446289-0.0117188-0.972168-0.0361328c-0.2280273-0.0244141-0.5820313-0.0244141-1.0620117,0
	S10.7060547,4.3710938,10.6821289,4.3466797z M14.6240234,10.6826172c0,1.0917969-0.3842773,2.0283203-1.1518555,2.8076172
	c-0.7680664,0.7802734-1.6982422,1.1640625-2.7900391,1.1523438c-1.0922852-0.0117188-2.0283203-0.3964844-2.8081055-1.1523438
	C7.09375,12.734375,6.7099609,11.7988281,6.722168,10.6826172c0.0117188-1.1162109,0.3959961-2.0517578,1.1518555-2.8085938
	C8.6298828,7.1181641,9.565918,6.734375,10.6821289,6.7226563c1.1157227-0.0117188,2.0454102,0.3720703,2.7900391,1.1513672
	C14.2158203,8.6542969,14.5996094,9.5908203,14.6240234,10.6826172z M13.237793,10.6826172
	c0-0.7080078-0.2460938-1.3144531-0.737793-1.8183594c-0.4921875-0.5039063-1.0981445-0.7558594-1.8178711-0.7558594
	c-0.7202148,0-1.3261719,0.2519531-1.8183594,0.7558594s-0.7441406,1.1103516-0.7558594,1.8183594
	C8.0957031,11.390625,8.3476563,11.9960938,8.8637695,12.5c0.5161133,0.5048828,1.1220703,0.7568359,1.8183594,0.7568359
	c0.6958008,0,1.3017578-0.2519531,1.8178711-0.7568359C13.015625,11.9960938,13.2617188,11.390625,13.237793,10.6826172z
	 M15.722168,6.5605469c0,0.2519531-0.090332,0.4677734-0.2700195,0.6474609
	c-0.1801758,0.1806641-0.4023438,0.2705078-0.6660156,0.2705078c-0.2641602,0-0.4804688-0.0898438-0.6479492-0.2705078
	c-0.168457-0.1796875-0.2583008-0.3955078-0.2700195-0.6474609c-0.012207-0.2519531,0.0776367-0.4677734,0.2700195-0.6484375
	c0.1914063-0.1796875,0.4077148-0.2695313,0.6479492-0.2695313c0.2397461,0,0.4614258,0.0898438,0.6660156,0.2695313
	C15.6557617,6.0927734,15.7460938,6.3085938,15.722168,6.5605469z"/>
</svg>
