<?xml version="1.0" encoding="utf-8"?>
<!-- Generator: Adobe Illustrator 21.0.0, SVG Export Plug-In . SVG Version: 6.00 Build 0)  -->
<svg version="1.2" baseProfile="tiny" xmlns="http://www.w3.org/2000/svg" xmlns:xlink="http://www.w3.org/1999/xlink" x="0px"
	 y="0px" viewBox="0 0 282.5900574 91.4954224" xml:space="preserve">
<g id="sticks_1_">
	<g id="sticks">
		<polygon fill="#FFFFFF" points="39.3626404,15.824173 39.3626404,15.824173 38.6519775,15.824173 12.5287781,79.826004 
			13.3890381,79.826004 		"/>
		<polygon fill="#FFFFFF" points="116.2151489,79.826004 89.1782227,15.8261261 90.0007629,15.8261261 116.9719238,79.826004 		"/>
		<polygon fill="#FFFFFF" points="249.8937378,79.826004 222.8568115,15.8261261 223.6793823,15.8261261 250.6505737,79.826004 		
			"/>
		<polygon fill="#FFFFFF" points="159.2713013,79.826004 132.234375,15.8261261 133.0569458,15.8261261 160.0280762,79.826004 		"/>
		<rect x="36.5043335" y="15.824173" fill="#FFFFFF" width="0.741394" height="64"/>
		<rect x="173.7740479" y="15.824173" fill="#FFFFFF" width="0.741394" height="64"/>
		<rect x="61.5273438" y="15.824173" fill="#FFFFFF" width="0.7854614" height="64.0018311"/>
		<rect x="146.1312256" y="15.824173" fill="#FFFFFF" width="0.7854614" height="64"/>
		<rect x="191.652832" y="15.824173" fill="#FFFFFF" width="0.7854614" height="64"/>
		<rect x="82.061554" y="15.8261261" fill="#FFFFFF" width="0.6842041" height="63.9998779"/>
		<rect x="239.3790283" y="15.8261261" fill="#FFFFFF" width="0.6842041" height="63.9998779"/>
		<rect x="272.5928345" y="15.8261261" fill="#FFFFFF" width="0.6842041" height="63.9998779"/>
		<rect x="55.2059937" y="15.824173" fill="#FFFFFF" width="0.7856445" height="64.0018311"/>
		<rect x="168.911438" y="15.824173" fill="#FFFFFF" width="0.7856445" height="64.0018311"/>
		<rect x="95.0030823" y="15.824173" fill="#FFFFFF" width="0.7856445" height="64.0018311"/>
		<rect x="139.6995239" y="15.824173" fill="#FFFFFF" width="0.7856445" height="64.0018311"/>
		<rect x="209.8681641" y="15.9146271" fill="#FFFFFF" width="0.7492676" height="63.911377"/>
	</g>
</g>
<g id="name_1_">
	<g id="name">
		<g>
			<path fill="#FFFFFF" d="M111.4230957,57.1569366h-15.634552V31.2367401h-0.7854614v26.631012h16.4200134V57.1569366
				L111.4230957,57.1569366z M124.2149048,38.7171783l-8.4902954,22.2924194
				c-0.2368774,0.6417847-0.4926147,1.1842651-0.7669067,1.6207886c-0.2681885,0.4365234-0.5858154,0.7854614-0.9537964,1.0474548
				c-0.3613892,0.2615051-0.8040161,0.448822-1.3218384,0.5672607c-0.5110474,0.1122131-1.1343994,0.168335-1.8575439,0.168335
				h-0.5610352v-0.7108154c0.105957,0.0185242,0.1934204,0.031311,0.2557373,0.031311
				c0.0560913,0.0062256,0.1245117,0.0062256,0.1931152,0.0062256c0.6231689,0.0123291,1.190918-0.0375366,1.7020874-0.1436768
				c0.5110474-0.0997314,0.9598999-0.3113708,1.3465576-0.6356812c0.3864746-0.3241577,0.7041016-0.8105774,0.9537354-1.4648132
				c0.0061035-0.0062256,0.0684204-0.1622314,0.1991577-0.4803162c0.1374512-0.3180847,0.3057861-0.7601929,0.5239868-1.3340149
				c0.2116089-0.5672913,0.4425659-1.234314,0.697998-2.0007629l-8.0414429-18.9637146h0.8225708l7.630188,18.1407166
				l6.9198608-18.1407166H124.2149048L124.2149048,38.7171783z M140.4851685,38.7171783h-0.7854614v10.9593506
				c0,0.8163147-0.0936279,1.614563-0.2744141,2.3939514c-0.1868896,0.7854614-0.4611816,1.520874-0.8291016,2.206604
				c-0.3676758,0.691803-0.8292847,1.2964783-1.3775635,1.8199463c-0.5485229,0.5302124-1.1846924,0.9414673-1.9140625,1.2409973
				c-0.7293701,0.2990723-1.5458374,0.4488525-2.449585,0.4550781c-0.8044434-0.0062256-1.5585938-0.1251526-2.2631836-0.368103
				c-0.7042847-0.2429504-1.3275146-0.5856628-1.8699951-1.0345154c-0.5424805-0.442749-0.97229-0.9727783-1.2904053-1.5899353
				c-0.1560059-0.3052979-0.2867432-0.598114-0.3866577-0.8848877c-0.0997314-0.2872009-0.1743774-0.5986023-0.2244263-0.9352112
				c-0.0560913-0.3303833-0.0935059-0.717041-0.1121826-1.1596375c-0.0185547-0.442627-0.0245972-0.9723206-0.0245972-1.583252
				V38.7171783h-0.7854614v12.3058472c0,1.0973206,0.149292,2.1004944,0.4487915,3.0111084
				c0.2990723,0.9037476,0.7416992,1.6891785,1.3275146,2.3501282c0.5861206,0.6604919,1.3093872,1.1715088,2.1694946,1.5333557
				c0.8601074,0.3614197,1.8514404,0.542511,2.9735718,0.5487366c1.2032471-0.0062256,2.2502441-0.2183228,3.1418457-0.6361389
				c0.8851929-0.4237671,1.6393433-1.0161133,2.2564697-1.7825623c0.6171265-0.7606812,1.1282959-1.6645813,1.5210571-2.7058105
				v4.5259094h0.7483521V38.7171783L140.4851685,38.7171783z M151.1450195,38.7171783h-4.2263794v-6.0217285h-0.7854614v6.0217285
				h-3.5906982v0.7107849h3.5906982v13.7645874c-0.0062256,0.6603088,0.0123291,1.2713928,0.0621948,1.8452148
				c0.0560913,0.5733643,0.1868286,1.0782776,0.3989258,1.5081177c0.2182007,0.4365234,0.5610352,0.7793884,1.0351563,1.0227966
				c0.4796753,0.242981,1.140625,0.3674927,1.9821777,0.3737183c0.180603,0,0.3427124-0.0062256,0.4863892-0.0124512
				c0.1430664-0.0123291,0.2990723-0.0246277,0.4611816-0.0498657c0.1559448-0.0185547,0.3551636-0.0498657,0.5858154-0.0869751
				V57.044754c-0.3491211,0.0560913-0.6481934,0.0936584-0.8977051,0.1182861
				c-0.2492065,0.0190125-0.4735718,0.0314636-0.6732178,0.0314636c-0.6732788-0.0062256-1.1967773-0.1122131-1.5648804-0.3243103
				c-0.3737183-0.2120972-0.6356812-0.4987183-0.7854614-0.866333c-0.1553345-0.3679504-0.2490234-0.7854614-0.2738037-1.2533264
				c-0.031311-0.4734497-0.0375366-0.9660645-0.031311-1.4833374V39.4279633h4.2263794V38.7171783L151.1450195,38.7171783z
				 M167.4903564,38.7171783l-7.3311157,19.1505737h-1.0098877l-8.0414429-19.1505737h0.822998l7.704834,18.4026794
				l7.0691528-18.4026794H167.4903564L167.4903564,38.7171783z M169.6970215,31.2367401h-0.7854614v3.815094h0.7854614V31.2367401
				L169.6970215,31.2367401z M169.6970215,38.7171783h-0.7854614v19.1505737h0.7854614V38.7171783L169.6970215,38.7171783z
				 M174.5219727,38.7171783h-0.7479248v19.1505737h0.7854614V47.2454987c0-0.7854614,0.074646-1.5709229,0.2367554-2.3563843
				c0.1620483-0.7793884,0.4117432-1.527771,0.7606812-2.2318726c0.3428345-0.7108154,0.7979126-1.340271,1.3527222-1.8890076
				c0.5610352-0.5487061,1.234314-0.9846191,2.026001-1.3027039c0.7915039-0.3180847,1.7144775-0.4803162,2.7676392-0.4863892
				c1.1035767,0.006073,2.0387573,0.1743774,2.8179932,0.5049438c0.7727051,0.3366089,1.4026489,0.79776,1.8885498,1.3901367
				c0.4801636,0.5925293,0.8353271,1.2780762,1.0597534,2.0635376s0.3366089,1.6393433,0.3305664,2.5494995v12.3804932h0.7854614
				V45.2257233c0-1.3902893-0.2620239-2.6122742-0.791687-3.646759c-0.5234985-1.0413818-1.3027344-1.8514404-2.331604-2.4315186
				c-1.034668-0.5735168-2.3127441-0.8725586-3.8336792-0.8791199c-1.1658936,0.0065613-2.225647,0.2372131-3.1793823,0.6860352
				c-0.9537964,0.448822-1.7702637,1.065979-2.4434814,1.857666c-0.6732788,0.7915649-1.1657715,1.7016907-1.4838257,2.7305908
				V38.7171783L174.5219727,38.7171783z M205.8286743,44.3651581c-0.0062256-1.3214111-0.2805176-2.4372559-0.8292847-3.341156
				c-0.5419922-0.9104614-1.3274536-1.5899353-2.3435669-2.0573425c-1.0227051-0.4611206-2.2442017-0.6983337-3.671875-0.6983337
				c-1.3903198,0.0065613-2.5747681,0.2058716-3.5593872,0.5986023c-0.9851074,0.3988037-1.7459106,0.9727783-2.2694092,1.714447
				c-0.5234985,0.7479248-0.7854614,1.6455994-0.7915649,2.6992493c0.0061035,0.7602234,0.1558838,1.4026184,0.4488525,1.9321899
				c0.2866211,0.5301819,0.6793213,0.9727783,1.1719971,1.3279419c0.4924316,0.3490906,1.0346069,0.6419373,1.6455688,0.8663635
				c0.6047974,0.2311096,1.2219849,0.4179688,1.8641968,0.573822c0.6356812,0.149292,1.246582,0.2929688,1.826355,0.4237366
				c0.5172729,0.1182861,1.0597534,0.2434387,1.6270142,0.3864746c0.5671387,0.1435547,1.1281738,0.3243408,1.6706543,0.5302124
				c0.5425415,0.2114563,1.0408936,0.4796753,1.4835205,0.79776c0.4425659,0.317627,0.7982178,0.717041,1.0597534,1.1844177
				c0.2619629,0.4734802,0.3989258,1.0411987,0.4052124,1.7016907c-0.0062866,0.9289856-0.2805786,1.7453003-0.8165283,2.4438171
				c-0.5362549,0.6980286-1.2778931,1.240509-2.2316895,1.6332397c-0.9476929,0.3927307-2.0507813,0.5923767-3.3101196,0.5986023
				c-2.2318726,0-3.9150391-0.5364075-5.0556641-1.6084595c-1.140625-1.0660095-1.708374-2.6493835-1.7144165-4.7503357h-0.7854614
				c0.0060425,1.5275879,0.2932739,2.8179932,0.8666382,3.8772888c0.5795898,1.065979,1.4273682,1.8704529,2.5432129,2.431488
				c1.1160278,0.5549622,2.4876099,0.8292542,4.1080933,0.8354797c1.4214478-0.0062256,2.6619873-0.2434082,3.7341919-0.6984863
				c1.06604-0.4611511,1.9013672-1.1030884,2.499939-1.9198608c0.5981445-0.8169556,0.8977051-1.7640076,0.9099731-2.8427734
				c-0.0060425-0.7726746-0.1434937-1.4336243-0.4177856-1.9761353c-0.274292-0.5485535-0.6481934-1.0036316-1.1158447-1.3711243
				c-0.4674072-0.368103-0.9971313-0.6671753-1.5834351-0.9105835c-0.5918579-0.2367554-1.1967163-0.4359131-1.8323975-0.6042175
				c-0.6361694-0.1622314-1.2532959-0.3120117-1.8580322-0.4488525c-0.5234375-0.1188965-1.0722046-0.2434082-1.6517944-0.374176
				s-1.1468506-0.2990723-1.7016602-0.4926147c-0.5549927-0.1991882-1.0598755-0.4550781-1.508728-0.7602234
				c-0.454895-0.3057861-0.8167725-0.6922607-1.0848389-1.1596375c-0.2677612-0.4674072-0.4052124-1.0351257-0.4113159-1.7016907
				c0.0061035-0.8668213,0.2367554-1.6147156,0.6918335-2.2441711c0.454895-0.6300964,1.1035156-1.1159973,1.9450684-1.4587097
				c0.8416138-0.3495789,1.8452148-0.5178833,3.0109863-0.5239563c1.3151855,0,2.4372559,0.1868591,3.3662109,0.5733643
				c0.9287109,0.3864746,1.6395264,0.9727783,2.132019,1.7705383c0.4926147,0.7979431,0.7418213,1.8078308,0.7480469,3.0421143
				H205.8286743L205.8286743,44.3651581z M225.0163574,38.7171783h-1.1221313l-13.277832,10.9593506V31.2367401h-0.74823v26.631012
				h0.74823v-7.256012l4.9744263-4.0770569l9.0516357,11.3330688h0.9723511l-9.4629517-11.894104L225.0163574,38.7171783
				L225.0163574,38.7171783z M242.5958862,57.044754v0.6732483c-0.199646,0.0560913-0.3865356,0.0936584-0.5671387,0.1182861
				c-0.1810913,0.0190125-0.3927612,0.0314636-0.6299438,0.0314636c-0.5111694,0-0.9038696-0.0808716-1.1843872-0.2306519
				c-0.2805786-0.1560059-0.4798584-0.3679504-0.5981445-0.642395c-0.1184692-0.2738037-0.1873169-0.598114-0.2120972-0.9723206
				c-0.0185547-0.374176-0.0313721-0.7792053-0.0251465-1.2218323c0-0.1683044,0-0.2990417,0-0.3866272
				c0-0.0807495,0.0065918-0.1616211,0.0065918-0.242981c0-0.080719,0.0062256-0.1991577,0.0122681-0.3551636
				c0-0.1558533,0.0125122-0.3865051,0.0185547-0.6983337c-0.4425659,1.1220703-1.0098877,2.0819397-1.6954346,2.8612976
				c-0.6917725,0.7854614-1.5270996,1.3840637-2.5123901,1.7953491c-0.9911499,0.4055176-2.1565552,0.6109314-3.4970093,0.617157
				c-1.3526001-0.0062256-2.4998779-0.2116394-3.4536743-0.6296082c-0.9537964-0.4173584-1.6768799-1.0159607-2.1818237-1.8076782
				c-0.5049438-0.791687-0.7541504-1.7454529-0.760376-2.8736267c0.0062256-0.8853455,0.1494141-1.6522522,0.4299927-2.2879639
				c0.2805176-0.6361694,0.6669922-1.1719666,1.1657104-1.6022339c0.4926147-0.4298401,1.0597534-0.7731628,1.7016602-1.034668
				c0.642395-0.2619629,1.3217163-0.4611511,2.0510864-0.5986023c0.7232666-0.1307373,1.4586792-0.2244263,2.2067871-0.274292
				c1.1781616-0.0808716,2.1384888-0.143219,2.8864136-0.1930847c0.7540894-0.0437927,1.3527222-0.1059875,1.7952881-0.1745605
				c0.442627-0.0751038,0.791748-0.1873169,1.0408936-0.3426819c0.2680664-0.1812439,0.4616699-0.3994446,0.567627-0.6609497
				c0.1121826-0.2619629,0.180603-0.5487366,0.1991577-0.8478088c0.0186768-0.29953,0.0252686-0.5923462,0.0186768-0.8851929
				c0-1.2405396-0.2306519-2.2503967-0.6856689-3.0296326c-0.4488525-0.7793884-1.1159058-1.3464966-1.9945068-1.708374
				c-0.8791504-0.3614197-1.9575806-0.5420227-3.2294312-0.5357971c-1.8950806,0-3.3723755,0.4734497-4.432251,1.4272156
				c-1.0597534,0.9477234-1.6769409,2.3693237-1.8514404,4.2578735h-0.7106934
				c0.1744385-2.0635681,0.8604126-3.6407166,2.0634155-4.7252502c1.1967163-1.0782776,2.8675537-1.6270142,5.0057373-1.6330872
				c0.9227905,0,1.7766724,0.0932007,2.5683594,0.2928162c0.791687,0.199646,1.4839478,0.5172729,2.0820923,0.9475403
				c0.5923462,0.4365234,1.0535278,0.9975891,1.3901367,1.6956177c0.3305664,0.6922607,0.4988403,1.5338135,0.5049438,2.5246887
				v11.5574951c-0.0061035,0.3927307,0.0252075,0.7354431,0.0936279,1.0289001
				c0.0686035,0.2990417,0.2055664,0.529541,0.4113159,0.697876c0.2058716,0.1683044,0.5111694,0.2558899,0.9163818,0.2558899
				c0.1810913,0,0.3431396-0.0129395,0.4986572-0.0375671C242.1655884,57.1697235,242.3591309,57.1198578,242.5958862,57.044754
				L242.5958862,57.044754z M239.3790283,46.6093292c-0.2306519,0.3241577-0.5482178,0.5671387-0.940979,0.7293701
				c-0.3927002,0.1683044-0.8730469,0.2865906-1.4401855,0.3616943c-0.5610352,0.068573-1.2094727,0.1246948-1.9450684,0.168335
				c-0.7355957,0.0370789-1.5646973,0.0932007-2.4810791,0.1622314c-0.822876,0.0560913-1.6207886,0.1683044-2.3876953,0.3366089
				c-0.7727051,0.168335-1.4710083,0.4298401-2.0881958,0.7977905c-0.6171265,0.3613892-1.1097412,0.8601074-1.4711304,1.5085754
				c-0.367981,0.6419373-0.5548096,1.4711914-0.5610962,2.4810486c0.0062866,0.9723206,0.2306519,1.8076477,0.6732788,2.4871521
				c0.4488525,0.6860352,1.0974731,1.2095032,1.9451294,1.5709229c0.8415527,0.3617249,1.8638916,0.5424805,3.0668335,0.5424805
				c1.065979,0,2.0197754-0.1559753,2.8679199-0.4736023c0.8415527-0.3118591,1.5831909-0.7792358,2.2188721-1.3963623
				c0.5049438-0.4803162,0.9476929-1.0228271,1.3280029-1.6399841c0.3803711-0.6104431,0.6732178-1.2589111,0.8916016-1.9446411
				c0.2116089-0.6860046,0.3237915-1.371582,0.3237915-2.063385V46.6093292L239.3790283,46.6093292z M257.8562622,38.7171783
				h-0.7479248l-6.9198608,18.1407166l-7.630188-18.1407166h-0.8225098l8.0414429,18.9637146
				c-0.2553101,0.766449-0.4863892,1.4334717-0.697876,2.0007629c-0.2183228,0.573822-0.3866577,1.0159302-0.5239868,1.3340149
				c-0.1307373,0.3180847-0.1930542,0.4740906-0.1992798,0.4803162c-0.2495117,0.6542358-0.5671387,1.1406555-0.9537964,1.4648132
				c-0.3864746,0.3243103-0.8353271,0.5359497-1.3464966,0.6356812c-0.5110474,0.1061401-1.0787354,0.1560059-1.7021484,0.1436768
				c-0.0684204,0-0.1368408,0-0.1929321-0.0062256c-0.0623169,0-0.1497803-0.0127869-0.2559204-0.031311v0.7108154h0.5610352
				c0.7233276,0,1.3465576-0.0561218,1.8577271-0.168335c0.5177002-0.1184387,0.9604492-0.3057556,1.3217163-0.5672607
				c0.368103-0.2619934,0.68573-0.6109314,0.9537354-1.0474548c0.2744751-0.4365234,0.5302124-0.9790039,0.7669678-1.6207886
				L257.8562622,38.7171783L257.8562622,38.7171783z M275.8096313,57.044754
				c-0.2367554,0.0751038-0.4302979,0.1249695-0.5861206,0.1497498c-0.1555176,0.0246277-0.317627,0.0375671-0.4987183,0.0375671
				c-0.4052124,0-0.7105103-0.0875854-0.9163818-0.2558899c-0.2056885-0.168335-0.3427124-0.3988342-0.4112549-0.697876
				c-0.0684204-0.293457-0.0997314-0.6361694-0.093689-1.0289001V43.6919098
				c-0.0060425-0.9908752-0.1743774-1.832428-0.5049438-2.5246887c-0.3366089-0.6980286-0.7977295-1.2590942-1.3901367-1.6956177
				c-0.5981445-0.4302673-1.2904053-0.7478943-2.0820923-0.9475403c-0.791687-0.1996155-1.6455688-0.2928162-2.5682983-0.2928162
				c-2.1382446,0.006073-3.809021,0.5548096-5.0057983,1.6330872c-1.2029419,1.0845337-1.8889771,2.6616821-2.0633545,4.7252502
				h0.7106323c0.1745605-1.8885498,0.791687-3.3101501,1.8514404-4.2578735
				c1.0599365-0.9537659,2.5371704-1.4272156,4.432251-1.4272156c1.2718506-0.0062256,2.3502808,0.1743774,3.2294312,0.5357971
				c0.8786621,0.3618774,1.5456543,0.9289856,1.9945068,1.708374c0.4550781,0.7792358,0.68573,1.789093,0.68573,3.0296326
				c0.0065308,0.2928467,0,0.5856628-0.0187378,0.8851929c-0.0184937,0.2990723-0.0869141,0.5858459-0.1991577,0.8478088
				c-0.105957,0.2615051-0.2994995,0.4797058-0.5675659,0.6609497c-0.2492065,0.155365-0.5982666,0.2675781-1.0408936,0.3426819
				c-0.442627,0.068573-1.0411987,0.1307678-1.7953491,0.1745605c-0.7479248,0.0498657-1.7081909,0.1122131-2.8864136,0.1930847
				c-0.7480469,0.0498657-1.4834595,0.1435547-2.2067871,0.274292c-0.7293091,0.1374512-1.4086914,0.3366394-2.0510864,0.5986023
				c-0.6419067,0.2615051-1.2090454,0.6048279-1.7016602,1.034668c-0.4987183,0.4302673-0.8851929,0.9660645-1.1657104,1.6022339
				c-0.2805176,0.6357117-0.4237671,1.4026184-0.4299927,2.2879639c0.0062256,1.1281738,0.2554321,2.0819397,0.760376,2.8736267
				c0.5049438,0.7917175,1.2280884,1.3903198,2.1818237,1.8076782c0.9537964,0.4179688,2.1011353,0.6233826,3.4537354,0.6296082
				c1.3403931-0.0062256,2.5057983-0.2116394,3.4970093-0.617157c0.9852295-0.4112854,1.8205566-1.0098877,2.5123901-1.7953491
				c0.6855469-0.7793579,1.2528076-1.7392273,1.6954346-2.8612976c-0.0061035,0.3118286-0.0185547,0.5424805-0.0185547,0.6983337
				c-0.0061035,0.1560059-0.0123291,0.2744446-0.0123291,0.3551636c0,0.0813599-0.0065308,0.1622314-0.0065308,0.242981
				c0,0.0875854,0,0.2183228,0,0.3866272c-0.0062256,0.442627,0.0065308,0.8476563,0.0250854,1.2218323
				c0.0247803,0.3742065,0.093689,0.6985168,0.2120972,0.9723206c0.1182861,0.2744446,0.317627,0.4863892,0.5981445,0.642395
				c0.2805176,0.1497803,0.6732788,0.2306519,1.1844482,0.2306519c0.2371826,0,0.4487915-0.0124512,0.6298828-0.0314636
				c0.1806641-0.0246277,0.3674927-0.0621948,0.5671387-0.1182861V57.044754L275.8096313,57.044754z M272.5928345,46.6093292
				v3.6282349c0,0.691803-0.1122437,1.3773804-0.3238525,2.063385c-0.2183228,0.68573-0.5111694,1.334198-0.8916016,1.9446411
				c-0.380249,0.617157-0.822998,1.159668-1.3279419,1.6399841c-0.6356812,0.6171265-1.3773804,1.0845032-2.2189331,1.3963623
				c-0.8480835,0.317627-1.8018799,0.4736023-2.8678589,0.4736023c-1.2030029,0-2.2253418-0.1807556-3.0668945-0.5424805
				c-0.8476563-0.3614197-1.4962769-0.8848877-1.9451294-1.5709229c-0.4425659-0.6795044-0.6669922-1.5148315-0.6732178-2.4871521
				c0.0062256-1.0098572,0.1930542-1.8391113,0.5610352-2.4810486c0.3613892-0.648468,0.8540039-1.1471863,1.4711914-1.5085754
				c0.6171265-0.3679504,1.3154907-0.6294556,2.0881348-0.7977905c0.7669678-0.1683044,1.5648804-0.2805176,2.3877563-0.3366089
				c0.9163208-0.0690308,1.7454224-0.1251526,2.4810181-0.1622314c0.7355957-0.0436401,1.3840942-0.099762,1.9451294-0.168335
				c0.5671387-0.0751038,1.0474243-0.1933899,1.4401855-0.3616943
				C272.0445557,47.1764679,272.3621826,46.9334869,272.5928345,46.6093292z"/>
			<path fill="#FFFFFF" d="M24.1984863,31.2367401h-0.7106628l-10.9590454,26.631012h0.86026l3.5906677-8.7898254h13.5400085
				l3.5160522,8.7898254h0.8601074L24.1984863,31.2367401L24.1984863,31.2367401z M30.2577515,48.367569H17.2415466
				l6.5829163-16.3078003L30.2577515,48.367569L30.2577515,48.367569z M37.2522583,38.7171783h-0.7479248v19.1505737h0.7854614
				V47.2454987c0-0.7854614,0.074646-1.5709229,0.236908-2.3563843c0.1620789-0.7793884,0.4117432-1.527771,0.7606812-2.2318726
				c0.3428345-0.7108154,0.79776-1.340271,1.3527222-1.8890076c0.5610352-0.5487061,1.2342834-0.9846191,2.0258484-1.3027039
				c0.791687-0.3180847,1.7145996-0.4803162,2.7676392-0.4863892c1.1035461,0.006073,2.0387878,0.1743774,2.8181458,0.5049438
				c0.7725525,0.3366089,1.4026184,0.79776,1.8885498,1.3901367c0.4801636,0.5925293,0.8353271,1.2780762,1.0597534,2.0635376
				s0.3366089,1.6393433,0.3303833,2.5494995v12.3804932h0.7854614V45.2257233c0-1.3902893-0.2619629-2.6122742-0.7915344-3.646759
				c-0.5234985-1.0413818-1.3028564-1.8514404-2.3317566-2.4315186c-1.0345154-0.5735168-2.3125916-0.8725586-3.8336487-0.8791199
				c-1.1657104,0.0065613-2.2256165,0.2372131-3.1794128,0.6860352c-0.9537659,0.448822-1.7700806,1.065979-2.4433289,1.857666
				c-0.6732483,0.7915649-1.1658936,1.7016907-1.4839478,2.7305908V38.7171783L37.2522583,38.7171783z M55.9915771,31.2367401
				h-0.7854614v3.815094h0.7854614V31.2367401L55.9915771,31.2367401z M55.9915771,38.7171783h-0.7854614v19.1505737h0.7854614
				V38.7171783L55.9915771,38.7171783z M66.5391846,38.7171783h-4.2263794v-6.0217285h-0.7854614v6.0217285H57.936676v0.7107849
				h3.5906677v13.7645874c-0.0062256,0.6603088,0.0124817,1.2713928,0.0623474,1.8452148
				c0.0560913,0.5733643,0.1868591,1.0782776,0.3989563,1.5081177c0.2182007,0.4365234,0.5610352,0.7793884,1.0349731,1.0227966
				c0.4798584,0.242981,1.140625,0.3674927,1.9822083,0.3737183c0.1807556,0,0.3428345-0.0062256,0.4863892-0.0124512
				c0.143219-0.0123291,0.2990723-0.0246277,0.4611511-0.0498657c0.1559753-0.0185547,0.3553162-0.0498657,0.5858154-0.0869751
				V57.044754c-0.348938,0.0560913-0.6480103,0.0936584-0.8976746,0.1182861
				c-0.2492065,0.0190125-0.4736023,0.0314636-0.6732483,0.0314636c-0.6732483-0.0062256-1.1967468-0.1122131-1.5646973-0.3243103
				c-0.3737183-0.2120972-0.6356812-0.4987183-0.7854614-0.866333c-0.1555176-0.3679504-0.249176-0.7854614-0.2739563-1.2533264
				c-0.0313416-0.4734497-0.0375671-0.9660645-0.0313416-1.4833374V39.4279633h4.2263794V38.7171783L66.5391846,38.7171783z
				 M85.2785034,57.044754c-0.2367249,0.0751038-0.4302979,0.1249695-0.5863037,0.1497498
				c-0.155365,0.0246277-0.3175964,0.0375671-0.4986877,0.0375671c-0.4050598,0-0.7103577-0.0875854-0.9162292-0.2558899
				c-0.2058716-0.168335-0.342865-0.3988342-0.4112549-0.697876c-0.0684204-0.293457-0.0999146-0.6361694-0.093689-1.0289001
				V43.6919098c-0.0062256-0.9908752-0.17453-1.832428-0.5049133-2.5246887
				c-0.3366394-0.6980286-0.7977905-1.2590942-1.3903198-1.6956177c-0.598114-0.4302673-1.2904053-0.7478943-2.0819397-0.9475403
				c-0.791687-0.1996155-1.6455688-0.2928162-2.5684814-0.2928162c-2.1381836,0.006073-3.8088684,0.5548096-5.0055847,1.6330872
				c-1.2029724,1.0845337-1.8890076,2.6616821-2.0635681,4.7252502h0.7108154
				c0.1745605-1.8885498,0.791687-3.3101501,1.8514404-4.2578735c1.0597534-0.9537659,2.5370178-1.4272156,4.432251-1.4272156
				c1.2718506-0.0062256,2.3501587,0.1743774,3.2292786,0.5357971c0.8786621,0.3618774,1.5458374,0.9289856,1.9946594,1.708374
				c0.4549255,0.7792358,0.6855774,1.789093,0.6855774,3.0296326c0.0066833,0.2928467,0,0.5856628-0.0185547,0.8851929
				c-0.0185547,0.2990723-0.0869751,0.5858459-0.1991882,0.8478088c-0.1061096,0.2615051-0.29953,0.4797058-0.5677185,0.6609497
				c-0.2492065,0.155365-0.5981445,0.2675781-1.040741,0.3426819c-0.4427795,0.068573-1.0413818,0.1307678-1.7953491,0.1745605
				c-0.7478943,0.0498657-1.708374,0.1122131-2.8865662,0.1930847c-0.7478943,0.0498657-1.48349,0.1435547-2.206604,0.274292
				c-0.7293701,0.1374512-1.408844,0.3366394-2.0510864,0.5986023c-0.6419373,0.2615051-1.209198,0.6048279-1.7016907,1.034668
				c-0.4988403,0.4302673-0.8853455,0.9660645-1.165863,1.6022339c-0.2805176,0.6357117-0.423584,1.4026184-0.4298401,2.2879639
				c0.0062561,1.1281738,0.2552795,2.0819397,0.7602234,2.8736267c0.5049438,0.7917175,1.2282104,1.3903198,2.1819763,1.8076782
				c0.9537964,0.4179688,2.1009521,0.6233826,3.4537048,0.6296082c1.340271-0.0062256,2.5056763-0.2116394,3.4970093-0.617157
				c0.9851074-0.4112854,1.8205872-1.0098877,2.5123901-1.7953491c0.6855774-0.7793579,1.2528381-1.7392273,1.6954346-2.8612976
				c-0.0062256,0.3118286-0.0185242,0.5424805-0.0185242,0.6983337c-0.0062561,0.1560059-0.0123291,0.2744446-0.0123291,0.3551636
				c0,0.0813599-0.0066833,0.1622314-0.0066833,0.242981c0,0.0875854,0,0.2183228,0,0.3866272
				c-0.0062561,0.442627,0.0066833,0.8476563,0.025238,1.2218323c0.0246277,0.3742065,0.0936584,0.6985168,0.2119446,0.9723206
				c0.1184387,0.2744446,0.317627,0.4863892,0.5981445,0.642395c0.2805176,0.1497803,0.6732483,0.2306519,1.1844177,0.2306519
				c0.2371826,0,0.448822-0.0124512,0.6299133-0.0314636c0.1807861-0.0246277,0.3676453-0.0621948,0.5672913-0.1182861V57.044754
				L85.2785034,57.044754z M82.061554,46.6093292v3.6282349c0,0.691803-0.1122131,1.3773804-0.3238525,2.063385
				c-0.2182007,0.68573-0.5110168,1.334198-0.891449,1.9446411c-0.3804016,0.617157-0.8230286,1.159668-1.3279419,1.6399841
				c-0.6357117,0.6171265-1.3773804,1.0845032-2.2189331,1.3963623c-0.8482666,0.317627-1.8020325,0.4736023-2.868042,0.4736023
				c-1.2029724,0-2.2251587-0.1807556-3.0667114-0.5424805c-0.8478088-0.3614197-1.4962769-0.8848877-1.9450989-1.5709229
				c-0.4425964-0.6795044-0.6670227-1.5148315-0.6732483-2.4871521c0.0062256-1.0098572,0.1930847-1.8391113,0.5610352-2.4810486
				c0.3613892-0.648468,0.8538818-1.1471863,1.4710083-1.5085754c0.617157-0.3679504,1.3156433-0.6294556,2.0883484-0.7977905
				c0.7669067-0.1683044,1.5646667-0.2805176,2.3876953-0.3366089c0.9162292-0.0690308,1.7454834-0.1251526,2.480896-0.1622314
				c0.7355957-0.0436401,1.3840637-0.099762,1.9451294-0.168335c0.5672607-0.0751038,1.0474243-0.1933899,1.440155-0.3616943
				C81.5132751,47.1764679,81.8309021,46.9334869,82.061554,46.6093292z"/>
		</g>
	</g>
</g>
</svg>
