<?xml version="1.0" encoding="utf-8"?>
<!-- Generator: Adobe Illustrator 21.0.0, SVG Export Plug-In . SVG Version: 6.00 Build 0)  -->
<svg version="1.2" baseProfile="tiny" id="Layer_1" xmlns="http://www.w3.org/2000/svg" xmlns:xlink="http://www.w3.org/1999/xlink"
	 x="0px" y="0px" viewBox="0 0 211.4099426 91.4954224" xml:space="preserve">
<g id="sticks_1_">
	<g id="sticks">
		<polygon points="33.82444,25 33.82444,25 33.3175507,25 14.6848211,70.650177 15.2984133,70.650177 		"/>
		<polygon points="88.6405334,70.650177 69.3560791,25.0013924 69.9427719,25.0013924 89.1803131,70.650177 		"/>
		<polygon points="183.9886169,70.650177 164.7041473,25.0013924 165.290863,25.0013924 184.5284271,70.650177 		"/>
		<polygon points="119.3509216,70.650177 100.0664673,25.0013924 100.6531754,25.0013924 119.8907013,70.650177 		"/>
		<rect x="31.7857132" y="25" width="0.5288094" height="45.6488724"/>
		<rect x="129.6952057" y="25" width="0.5288094" height="45.6488724"/>
		<rect x="49.6337166" y="25" width="0.560241" height="45.650177"/>
		<rect x="109.9785843" y="25" width="0.560241" height="45.6488724"/>
		<rect x="142.4474945" y="25" width="0.560241" height="45.6488724"/>
		<rect x="64.2800217" y="25.0013924" width="0.4880179" height="45.6487846"/>
		<rect x="176.4888458" y="25.0013924" width="0.4880179" height="45.6487846"/>
		<rect x="200.1790466" y="25.0013924" width="0.4880179" height="45.6487846"/>
		<rect x="45.1249275" y="25" width="0.5603716" height="45.650177"/>
		<rect x="126.2268829" y="25" width="0.5603716" height="45.650177"/>
		<rect x="73.5107422" y="25" width="0.5603716" height="45.650177"/>
		<rect x="105.3910904" y="25" width="0.5603716" height="45.650177"/>
		<rect x="155.4398193" y="25.064518" width="0.5344253" height="45.585659"/>
	</g>
</g>
<g id="name_1_">
	<g id="name">
		<g>
			<path d="M85.2225418,54.4811554H74.0709839V35.9932251h-0.5602417v18.9949303h11.7117996V54.4811554L85.2225418,54.4811554z
				 M94.3464737,41.3287468l-6.0558243,15.9003716c-0.1689529,0.4577637-0.3513641,0.8446922-0.5470047,1.1560516
				c-0.1912842,0.3113556-0.4178391,0.5602379-0.6803055,0.7471085c-0.2577667,0.1865234-0.5734787,0.3201294-0.9428177,0.4046097
				c-0.3645172,0.0800362-0.8091278,0.1200638-1.3249207,0.1200638h-0.4001694v-0.5069962
				c0.0755768,0.0132103,0.1379623,0.0223312,0.1824112,0.0223312c0.0400085,0.0044403,0.0888062,0.0044403,0.1377411,0.0044403
				c0.4444809,0.0087967,0.8494415-0.0267715,1.214035-0.102478c0.3645172-0.0711365,0.6846619-0.2220879,0.9604492-0.4534073
				c0.2756653-0.2312126,0.5022125-0.5781555,0.6802673-1.0447998c0.0043564-0.0044403,0.0488052-0.1157112,0.1420517-0.3425903
				c0.0980377-0.2268791,0.2181091-0.5422173,0.3737411-0.9515038c0.1509323-0.4046288,0.3156662-0.880394,0.4978561-1.4270744
				L82.84832,41.3287468h0.5867081l5.442337,12.9391136l4.9356842-12.9391136H94.3464737L94.3464737,41.3287468z
				 M105.9514618,41.3287468h-0.5602417v7.816906c0,0.5822487-0.0667877,1.1516113-0.1957321,1.7075195
				c-0.1333008,0.5602417-0.3289413,1.0847855-0.5913696,1.5738907c-0.2622452,0.4934387-0.5914993,0.9247284-0.9825668,1.2980995
				c-0.3912354,0.3781815-0.8449936,0.6715164-1.3652267,0.8851585c-0.5202332,0.2133179-1.1025925,0.3201523-1.7472,0.3245926
				c-0.5737839-0.0044403-1.1116867-0.0892677-1.6142502-0.2625542c-0.5023422-0.1732903-0.9468689-0.4177322-1.3338013-0.7378845
				c-0.3869247-0.3157959-0.6934967-0.6938477-0.9203949-1.1340408c-0.1112747-0.2177582-0.2045212-0.4266129-0.2757874-0.6311607
				c-0.0711365-0.2048492-0.124382-0.42696-0.16008-0.6670494c-0.0400085-0.2356529-0.0666885-0.5114403-0.0800095-0.8271294
				c-0.013237-0.3157082-0.0175476-0.6935196-0.0175476-1.1292763v-8.2170715h-0.5602417V50.10606
				c0,0.7826805,0.1064835,1.4982071,0.3201065,2.1477127c0.2133179,0.6446114,0.5290298,1.2048302,0.9468689,1.6762619
				c0.4180603,0.4711075,0.9339371,0.8355942,1.5474243,1.093689c0.6134796,0.2577858,1.3205643,0.3869514,2.1209412,0.3913918
				c0.8582306-0.0044403,1.605011-0.1557198,2.2409592-0.4537354c0.6313782-0.3022575,1.1692886-0.7247543,1.6094589-1.2714348
				c0.4401703-0.5425682,0.8047714-1.1872864,1.0849152-1.9299583v3.2281685h0.5337753V41.3287468L105.9514618,41.3287468z
				 M113.5547409,41.3287468h-3.0145187v-4.2950783h-0.5602417v4.2950783h-2.5611191v0.5069771h2.5611191v9.8177795
				c-0.0044403,0.470974,0.0087891,0.9068375,0.0443573,1.316124c0.0400085,0.4089622,0.1332626,0.7690964,0.2845383,1.0756874
				c0.1556396,0.3113556,0.4001694,0.5559082,0.7383423,0.7295227c0.3421326,0.1733093,0.8135681,0.2621193,1.4138184,0.2665596
				c0.1288147,0,0.2444382-0.0044403,0.3469238-0.0088806c0.1020432-0.0087929,0.2133179-0.0175667,0.3289413-0.0355682
				c0.1112289-0.0132332,0.2533264-0.0355682,0.4178391-0.0620346v-0.5337715
				c-0.2490158,0.0400047-0.4623337,0.066803-0.6402969,0.0843658c-0.1777496,0.0135612-0.3377838,0.0224419-0.4801865,0.0224419
				c-0.4802246-0.0044403-0.8536148-0.0800362-1.1161728-0.2313156c-0.2665558-0.1512833-0.4534073-0.3557205-0.5602417-0.6179237
				c-0.1107941-0.2624474-0.1776123-0.5602417-0.1952896-0.8939552c-0.0223312-0.3376923-0.0267715-0.6890564-0.0223312-1.0580101
				v-9.8710213h3.0145187V41.3287468L113.5547409,41.3287468z M125.2132797,41.3287468l-5.2290192,13.6594086h-0.7203217
				l-5.7356644-13.6594086h0.5870132l5.495575,13.1259613l5.0421753-13.1259613H125.2132797L125.2132797,41.3287468z
				 M126.7872086,35.9932251h-0.5602417v2.7211647h0.5602417V35.9932251L126.7872086,35.9932251z M126.7872086,41.3287468
				h-0.5602417v13.6594086h0.5602417V41.3287468L126.7872086,41.3287468z M130.2286682,41.3287468h-0.5334625v13.6594086h0.5602417
				v-7.5764656c0-0.5602417,0.0532379-1.1204834,0.168869-1.6807251c0.1155853-0.5559082,0.2936859-1.0897026,0.542572-1.5919113
				c0.2445221-0.507,0.5691071-0.9559669,0.9648438-1.3473625c0.4001617-0.3913727,0.8803864-0.7022934,1.4450684-0.9291725
				c0.5645447-0.2268753,1.2228699-0.3425903,1.9740601-0.3469238c0.7871399,0.0043335,1.4541626,0.1243782,2.009964,0.3601608
				c0.5511475,0.2400894,1.0004578,0.5690117,1.3470459,0.9915314c0.3424835,0.4226303,0.5957947,0.9116058,0.7558746,1.4718475
				s0.240097,1.1692848,0.2357788,1.8184662v8.830555h0.5602417v-9.0171013c0-0.991642-0.1868896-1.8632393-0.564682-2.6010971
				c-0.3733826-0.7427826-0.929184-1.3205681-1.6630402-1.734314c-0.7379913-0.4090691-1.6495972-0.622364-2.7344208-0.6270447
				c-0.831604,0.0046806-1.5874786,0.1691933-2.267746,0.4893227c-0.6803131,0.3201294-1.2626648,0.7603226-1.7428436,1.3250046
				c-0.4802246,0.5645943-0.8314972,1.2137566-1.0583649,1.9476318V41.3287468L130.2286682,41.3287468z M152.558609,45.3572464
				c-0.0044403-0.9425163-0.2000885-1.7384071-0.591507-2.3831253c-0.3865814-0.6493988-0.9468231-1.1340446-1.6715851-1.4674263
				c-0.7294464-0.3289032-1.600708-0.4980965-2.6190033-0.4980965c-0.9916687,0.0046806-1.8364868,0.1468391-2.5387878,0.42696
				c-0.7026367,0.2844543-1.2453003,0.6938477-1.6186829,1.2228546c-0.3733978,0.5334663-0.5602417,1.1737442-0.5645905,1.9252739
				c0.0043488,0.5422401,0.1111755,1.0004387,0.3201447,1.3781624c0.2044373,0.3781586,0.4845276,0.6938477,0.8359375,0.9471703
				c0.3512421,0.2489967,0.7379456,0.4578705,1.1737213,0.6179466c0.4313812,0.1648407,0.8715973,0.2981224,1.3296661,0.4092865
				c0.4534149,0.1064835,0.8891449,0.2089653,1.3026733,0.3022346c0.3689575,0.0843697,0.7558899,0.1736374,1.1604919,0.2756615
				c0.4045258,0.1023903,0.8046875,0.2313385,1.1916199,0.3781815c0.3869781,0.1508217,0.7424316,0.3421326,1.058136,0.5690117
				c0.3156738,0.2265511,0.5693512,0.5114403,0.7558899,0.8448029c0.1868439,0.3377151,0.2845306,0.7426491,0.2890167,1.2137527
				c-0.0044861,0.6626129-0.200119,1.2448578-0.5823975,1.7430878c-0.3824921,0.4978752-0.9114685,0.8848076-1.5917816,1.1649284
				c-0.6759491,0.2801208-1.4627533,0.4225197-2.3609924,0.42696c-1.5919037,0-2.79245-0.3825989-3.6060181-1.1472549
				c-0.8135681-0.7603455-1.2185211-1.8897095-1.2228241-3.3882408h-0.5602417
				c0.004303,1.0895729,0.2091827,2.0099716,0.6181335,2.7655296c0.4134064,0.7603226,1.0180969,1.3341255,1.8139801,1.7342911
				c0.7960205,0.3958359,1.7743225,0.5914764,2.9301605,0.5959167c1.0138702-0.0044403,1.8986969-0.1736145,2.6634674-0.4982033
				c0.7603607-0.3289223,1.3561707-0.7867928,1.7831116-1.3693695c0.4266357-0.5827026,0.6403046-1.2582016,0.6490479-2.0276451
				c-0.004303-0.5511208-0.1023407-1.0225525-0.2979889-1.4095039c-0.1956482-0.3912659-0.4623413-0.7158546-0.7958984-0.9779739
				c-0.333374-0.2625542-0.7112122-0.475872-1.1293945-0.6494865c-0.4221649-0.168869-0.8535767-0.3109207-1.3069916-0.4309654
				c-0.4537506-0.115715-0.8939209-0.2225456-1.3252716-0.3201523c-0.3733368-0.0848045-0.7647552-0.1736145-1.1781616-0.2668839
				c-0.4133911-0.0932732-0.8180084-0.2133179-1.2137299-0.3513641c-0.3958588-0.1420746-0.7559662-0.3245926-1.0761261-0.5422401
				c-0.3244476-0.2181053-0.5825653-0.4937668-0.7737732-0.8271294c-0.190979-0.3333817-0.2890167-0.7383156-0.2933655-1.2137527
				c0.0043488-0.6182709,0.168869-1.1517181,0.493454-1.6006851c0.3244629-0.4494247,0.7870941-0.7960014,1.3873444-1.0404434
				c0.600296-0.2493439,1.3161316-0.3693886,2.1476288-0.3737221c0.9380798,0,1.7384033,0.1332817,2.401001,0.4089622
				c0.6624146,0.2756577,1.1694031,0.6938477,1.5206909,1.2628593c0.3513641,0.5691452,0.5291138,1.2894592,0.5335541,2.1698303
				H152.558609L152.558609,45.3572464z M166.2444763,41.3287468h-0.8003693l-9.4705963,7.816906V35.9932251h-0.5336914v18.9949303
				h0.5336914V49.812706l3.5480804-2.9080162l6.456192,8.0834656h0.6935425l-6.7495728-8.4836311L166.2444763,41.3287468
				L166.2444763,41.3287468z M178.7833099,54.4011421v0.4802017c-0.142395,0.0400085-0.2756958,0.066803-0.4045105,0.0843697
				c-0.1291656,0.0135612-0.2801361,0.0224419-0.4493103,0.0224419c-0.3646088,0-0.6446991-0.057682-0.8447876-0.1645164
				c-0.200119-0.1112747-0.3422699-0.2624435-0.4266357-0.4581947c-0.0845032-0.1952972-0.133606-0.4266129-0.1512756-0.6935234
				c-0.0132446-0.2668839-0.0223846-0.5557785-0.0179443-0.8714867c0-0.1200447,0-0.213295,0-0.2757683
				c0-0.0575943,0.0046997-0.1152802,0.0046997-0.1733093c0-0.0575752,0.0044403-0.1420517,0.0087585-0.2533264
				c0-0.1111641,0.0089264-0.2756805,0.0132294-0.4980965c-0.3156586,0.8003349-0.7203064,1.4849739-1.2092896,2.0408592
				c-0.4934082,0.5602417-1.0892181,0.9872055-1.7919922,1.2805595c-0.706955,0.2892418-1.5381927,0.4357529-2.4942932,0.4401932
				c-0.9647675-0.0044403-1.7830658-0.1509514-2.4633789-0.4490738c-0.6803131-0.2976875-1.1960602-0.7246475-1.5562134-1.2893524
				c-0.3601685-0.564682-0.5379181-1.2449684-0.5423584-2.0496521c0.0044403-0.631485,0.1065826-1.1784935,0.3067017-1.6319237
				c0.2000885-0.4537544,0.4757385-0.8359184,0.8314667-1.1428146c0.3513641-0.3065872,0.7558746-0.5514679,1.2137299-0.7379913
				c0.4581909-0.1868477,0.9427338-0.3289223,1.4629669-0.42696c0.5158691-0.0932503,1.0404205-0.1600761,1.5740204-0.1956406
				c0.840332-0.0576859,1.5252991-0.1021538,2.0587769-0.137722c0.5378571-0.0312347,0.9648438-0.0755959,1.2805023-0.1245079
				c0.3157196-0.0535698,0.5647278-0.133606,0.7424316-0.2444229c0.1912079-0.1292725,0.3292999-0.2849083,0.4048767-0.4714317
				c0.0800171-0.1868477,0.1288147-0.3913918,0.1420441-0.6047096c0.0133209-0.2136459,0.0180206-0.4225006,0.0133209-0.6313782
				c0-0.8848305-0.164505-1.6051254-0.4890594-2.1609268c-0.3201447-0.5559082-0.795929-0.9604034-1.4226074-1.2185211
				c-0.6270599-0.2577858-1.3962708-0.3866043-2.3034363-0.382164c-1.3516998,0-2.4053955,0.3376961-3.1613617,1.0179825
				c-0.7558899,0.6759758-1.196106,1.6899529-1.3205719,3.0369873h-0.5069122
				c0.1244202-1.4718704,0.6137085-2.5967903,1.4717712-3.3703499c0.8535614-0.7690964,2.0453186-1.1604919,3.5704041-1.1648216
				c0.6581879,0,1.2672424,0.0664749,1.8319092,0.2088547c0.564682,0.1423988,1.0584564,0.3689537,1.4850922,0.6758461
				c0.4225006,0.3113556,0.7514343,0.711544,0.9915314,1.2094231c0.2357788,0.493763,0.3558044,1.0940132,0.3601532,1.800766
				v8.2435417c-0.0043488,0.2801208,0.0179901,0.5245667,0.0667877,0.7338791
				c0.0489349,0.213295,0.1466217,0.3777008,0.2933807,0.4977684c0.1468353,0.1200447,0.3645935,0.182518,0.6536102,0.182518
				c0.1291656,0,0.244751-0.0092316,0.3556824-0.0267982C178.4763947,54.4902763,178.6144409,54.4547081,178.7833099,54.4011421
				L178.7833099,54.4011421z M176.4888458,46.9579315c-0.164505,0.2312088-0.3910217,0.4045181-0.6711578,0.5202332
				c-0.2801056,0.1200447-0.6227112,0.2044144-1.0272369,0.2579842c-0.4001617,0.0489082-0.8626709,0.0889397-1.3873444,0.1200676
				c-0.5246735,0.0264473-1.1160431,0.0664749-1.7696686,0.1157112c-0.5869293,0.0400085-1.1560516,0.1200485-1.7030487,0.2400932
				c-0.5511475,0.1200676-1.0492249,0.3065872-1.4894409,0.5690346c-0.4401703,0.2577667-0.7915344,0.6134834-1.0493011,1.0760117
				c-0.2624664,0.4578705-0.3957214,1.0493469-0.4002075,1.7696419c0.0044861,0.6935196,0.1645203,1.2893295,0.4802246,1.7739944
				c0.3201447,0.4893227,0.7827911,0.8626938,1.3873901,1.1204834c0.6002502,0.2580032,1.3294525,0.3869324,2.1874542,0.3869324
				c0.7603302,0,1.4406433-0.1112518,2.0455933-0.3378067c0.6002502-0.222435,1.1292267-0.5557976,1.5826416-0.9959717
				c0.3601532-0.3425941,0.6759491-0.7295456,0.9472046-1.1697426c0.2713165-0.4354057,0.4801941-0.897934,0.6359558-1.387043
				c0.1509247-0.4892998,0.2309418-0.9782982,0.2309418-1.4717369V46.9579315L176.4888458,46.9579315z M189.667984,41.3287468
				h-0.5334625l-4.9356842,12.9391136l-5.442337-12.9391136h-0.5866699l5.735672,13.5261269
				c-0.1820984,0.5466805-0.3469238,1.0224457-0.4977722,1.4270744c-0.1557159,0.4092865-0.2757874,0.7246246-0.3737335,0.9515038
				c-0.0932617,0.2268791-0.1376953,0.33815-0.1421356,0.3425903c-0.1779785,0.4666443-0.4045258,0.8135872-0.6803131,1.0447998
				c-0.2756653,0.2313194-0.5958099,0.3822708-0.9604034,0.4534073c-0.3645172,0.0757065-0.7694244,0.1112747-1.2140808,0.102478
				c-0.0488129,0-0.0976105,0-0.137619-0.0044403c-0.0444489,0-0.1068268-0.0091209-0.1825409-0.0223312v0.5069962h0.400177
				c0.5159149,0,0.9604492-0.0400276,1.3250427-0.1200638c0.3692627-0.0844803,0.6850586-0.2180862,0.9427338-0.4046097
				c0.262558-0.1868706,0.4891052-0.4357529,0.6802673-0.7471085c0.1957703-0.3113594,0.3781738-0.698288,0.5470428-1.1560516
				L189.667984,41.3287468L189.667984,41.3287468z M202.4734802,54.4011421
				c-0.168869,0.053566-0.3069153,0.0891342-0.4180603,0.1068077c-0.1109314,0.0175667-0.2265625,0.0267982-0.3557281,0.0267982
				c-0.2890167,0-0.5067749-0.0624733-0.6536102-0.182518c-0.1467133-0.1200676-0.2444458-0.2844734-0.293335-0.4977684
				c-0.0488129-0.2093124-0.0711365-0.4537582-0.0668335-0.7338791v-8.2435417
				c-0.004303-0.7067528-0.1243744-1.307003-0.3601532-1.800766c-0.240097-0.497879-0.568985-0.8980675-0.9915314-1.2094231
				c-0.4266357-0.3068924-0.9203949-0.5334473-1.4850769-0.6758461c-0.564682-0.1423798-1.1737366-0.2088547-1.8318787-0.2088547
				c-1.5251312,0.0043297-2.7168427,0.3957253-3.5704498,1.1648216c-0.858017,0.7735596-1.3473511,1.8984795-1.4717255,3.3703499
				h0.5068665c0.1245117-1.3470345,0.564682-2.3610115,1.3205719-3.0369873
				c0.756012-0.6802864,1.8096771-1.0179825,3.1613617-1.0179825c0.9071655-0.0044403,1.6763763,0.1243782,2.3034363,0.382164
				c0.6267242,0.2581177,1.1024628,0.6626129,1.4226074,1.2185211c0.324585,0.5558014,0.4891052,1.2760963,0.4891052,2.1609268
				c0.0046539,0.2088776,0,0.4177322-0.0133667,0.6313782c-0.0131836,0.2133179-0.0619812,0.4178619-0.1420441,0.6047096
				c-0.0755768,0.1865234-0.213623,0.3421593-0.4048309,0.4714317c-0.1777496,0.110817-0.426712,0.1908531-0.7424316,0.2444229
				c-0.3157043,0.048912-0.7426453,0.0932732-1.2805481,0.1245079c-0.5334778,0.0355682-1.218399,0.0800362-2.0587769,0.137722
				c-0.5335541,0.0355644-1.0581055,0.1023903-1.5740204,0.1956406c-0.5201874,0.0980377-1.004776,0.2401123-1.4629669,0.42696
				c-0.4578552,0.1865234-0.8623657,0.4314041-1.2137299,0.7379913c-0.3557281,0.3068962-0.6313782,0.6890602-0.8314667,1.1428146
				c-0.2000732,0.4534302-0.3022614,1.0004387-0.3067017,1.6319237c0.0044403,0.8046837,0.1822052,1.4849701,0.5423584,2.0496521
				c0.3601532,0.5647049,0.875946,0.9916649,1.5562134,1.2893524c0.6803131,0.2981224,1.4986572,0.4446335,2.4634247,0.4490738
				c0.9560547-0.0044403,1.7872925-0.1509514,2.4942932-0.4401932c0.7027283-0.293354,1.2985382-0.7203178,1.7919922-1.2805595
				c0.4889679-0.5558853,0.8935852-1.2405243,1.2092896-2.0408592c-0.0043488,0.2224159-0.0132294,0.3869324-0.0132294,0.4980965
				c-0.004364,0.1112747-0.0088043,0.1957512-0.0088043,0.2533264c0,0.0580292-0.0046539,0.115715-0.0046539,0.1733093
				c0,0.0624733,0,0.1557236,0,0.2757683c-0.0044403,0.3157082,0.0046539,0.6046028,0.0178986,0.8714867
				c0.0176697,0.2669106,0.0668182,0.4982262,0.1512756,0.6935234c0.0843658,0.1957512,0.2265472,0.34692,0.4266357,0.4581947
				c0.2000885,0.1068344,0.4802246,0.1645164,0.8448181,0.1645164c0.1691742,0,0.3201141-0.0088806,0.4492798-0.0224419
				c0.1288605-0.0175667,0.2621155-0.0443611,0.4045258-0.0843697V54.4011421L202.4734802,54.4011421z M200.1790466,46.9579315
				v2.5878868c0,0.4934387-0.0800629,0.9824371-0.2309875,1.4717369c-0.1557312,0.489109-0.3645935,0.9516373-0.6359558,1.387043
				c-0.2712097,0.440197-0.5870056,0.8271484-0.9471588,1.1697426c-0.4534149,0.4401741-0.9824371,0.7735367-1.5826874,0.9959717
				c-0.6049042,0.2265549-1.2852173,0.3378067-2.0455475,0.3378067c-0.8580475,0-1.5872498-0.1289291-2.1875-0.3869324
				c-0.604599-0.2577896-1.0672455-0.6311607-1.3873901-1.1204834c-0.3156738-0.4846649-0.4757385-1.0804749-0.4801788-1.7739944
				c0.0044403-0.720295,0.1376953-1.3117714,0.4001617-1.7696419c0.2577667-0.4625282,0.6091309-0.8182449,1.0493469-1.0760117
				c0.4401703-0.2624474,0.9382935-0.448967,1.4893951-0.5690346c0.5470428-0.1200447,1.1161652-0.2000847,1.7030945-0.2400932
				c0.6535797-0.0492363,1.2449493-0.0892639,1.7696228-0.1157112c0.5246735-0.0311279,0.9872284-0.0711594,1.3873901-0.1200676
				c0.4045258-0.0535698,0.7470856-0.1379395,1.0272369-0.2579842
				C199.7879791,47.3624496,200.0145264,47.1891403,200.1790466,46.9579315z"/>
			<path d="M23.0084,35.9932251h-0.5068893l-7.8166895,18.9949303h0.6135921l2.5610933-6.2694626h9.6575947l2.5078716,6.2694626
				h0.6134834L23.0084,35.9932251L23.0084,35.9932251z M27.3302536,48.2120209h-9.2839851l4.6953545-11.6317596
				L27.3302536,48.2120209L27.3302536,48.2120209z M32.3191795,41.3287468h-0.5334663v13.6594086h0.5602417v-7.5764656
				c0-0.5602417,0.0532417-1.1204834,0.1689758-1.6807251c0.1156044-0.5559082,0.2936821-1.0897026,0.5425682-1.5919113
				c0.2445297-0.507,0.5690117-0.9559669,0.9648476-1.3473625c0.4001656-0.3913727,0.8803673-0.7022934,1.4449615-0.9291725
				c0.564682-0.2268753,1.2229614-0.3425903,1.9740562-0.3469238c0.7871208,0.0043335,1.4541931,0.1243782,2.0100822,0.3601608
				c0.551033,0.2400894,1.0004349,0.5690117,1.3470345,0.9915314c0.3424835,0.4226303,0.5958061,0.9116058,0.7558823,1.4718475
				s0.2400932,1.1692848,0.2356491,1.8184662v8.830555h0.5602417v-9.0171013c0-0.991642-0.1868477-1.8632393-0.5645714-2.6010971
				c-0.373394-0.7427826-0.9292793-1.3205681-1.6631584-1.734314c-0.7378807-0.4090691-1.6494865-0.622364-2.7344017-0.6270447
				c-0.831459,0.0046806-1.5874519,0.1691933-2.2677574,0.4893227c-0.6802864,0.3201294-1.2625351,0.7603226-1.7427406,1.3250046
				c-0.4802017,0.5645943-0.8315887,1.2137566-1.058445,1.9476318V41.3287468L32.3191795,41.3287468z M45.6852531,35.9932251
				h-0.5602379v2.7211647h0.5602379V35.9932251L45.6852531,35.9932251z M45.6852531,41.3287468h-0.5602379v13.6594086h0.5602379
				V41.3287468L45.6852531,41.3287468z M53.2084808,41.3287468h-3.0145226v-4.2950783h-0.5602417v4.2950783h-2.5610924v0.5069771
				h2.5610924v9.8177795c-0.0044403,0.470974,0.0088997,0.9068375,0.0444679,1.316124
				c0.0400085,0.4089622,0.1332817,0.7690964,0.2845612,1.0756874c0.1556358,0.3113556,0.4001656,0.5559082,0.7382088,0.7295227
				c0.3422661,0.1733093,0.8135681,0.2621193,1.4138374,0.2665596c0.1289253,0,0.2445335-0.0044403,0.3469238-0.0088806
				c0.1021538-0.0087929,0.2133179-0.0175667,0.3289223-0.0355682c0.1112518-0.0132332,0.2534332-0.0355682,0.4178429-0.0620346
				v-0.5337715c-0.2488861,0.0400047-0.462204,0.066803-0.6402817,0.0843658
				c-0.1777496,0.0135612-0.3378029,0.0224419-0.4802017,0.0224419c-0.4802055-0.0044403-0.8535957-0.0800362-1.1160431-0.2313156
				c-0.2665596-0.1512833-0.4534073-0.3557205-0.5602417-0.6179237c-0.1109238-0.2624474-0.1777267-0.5602417-0.1954002-0.8939552
				c-0.0223541-0.3376923-0.0267982-0.6890564-0.0223541-1.0580101v-9.8710213h3.0145226V41.3287468L53.2084808,41.3287468z
				 M66.5745544,54.4011421c-0.1688461,0.053566-0.3069153,0.0891342-0.41819,0.1068077
				c-0.110817,0.0175667-0.226532,0.0267982-0.3556976,0.0267982c-0.2889099,0-0.5066681-0.0624733-0.653511-0.182518
				c-0.146843-0.1200676-0.2445526-0.2844734-0.293335-0.4977684c-0.0487976-0.2093124-0.0712662-0.4537582-0.0668259-0.7338791
				v-8.2435417c-0.0044403-0.7067528-0.1244812-1.307003-0.3601303-1.800766
				c-0.2401199-0.497879-0.5690384-0.8980675-0.9916687-1.2094231c-0.4266129-0.3068924-0.9203987-0.5334473-1.4849701-0.6758461
				c-0.564682-0.1423798-1.1737251-0.2088547-1.8320045-0.2088547c-1.5250893,0.0043297-2.7167282,0.3957253-3.5703011,1.1648216
				c-0.858036,0.7735596-1.3473625,1.8984795-1.4718704,3.3703499h0.507
				c0.1245079-1.3470345,0.564682-2.3610115,1.3205643-3.0369873c0.7558823-0.6802864,1.8095627-1.0179825,3.1613655-1.0179825
				c0.9071617-0.0044403,1.676281,0.1243782,2.3033257,0.382164c0.6267166,0.2581177,1.1025887,0.6626129,1.422718,1.2185211
				c0.3244781,0.5558014,0.4889984,1.2760963,0.4889984,2.1609268c0.0047684,0.2088776,0,0.4177322-0.013237,0.6313782
				c-0.013237,0.2133179-0.0620346,0.4178619-0.1420746,0.6047096c-0.0756836,0.1865234-0.2136421,0.3421593-0.4049301,0.4714317
				c-0.1777496,0.110817-0.4266357,0.1908531-0.7423248,0.2444229c-0.3158188,0.048912-0.7427788,0.0932732-1.2805557,0.1245079
				c-0.5334473,0.0355682-1.2185211,0.0800362-2.0588837,0.137722c-0.5334435,0.0355644-1.0581169,0.1023903-1.5738907,0.1956406
				c-0.5202332,0.0980377-1.0048752,0.2401123-1.4629631,0.42696c-0.4578705,0.1865234-0.8624763,0.4314041-1.2137566,0.7379913
				c-0.3558044,0.3068962-0.6314812,0.6890602-0.8315659,1.1428146c-0.2000847,0.4534302-0.3021278,1.0004387-0.306591,1.6319237
				c0.0044632,0.8046837,0.1820831,1.4849701,0.5422401,2.0496521c0.3601608,0.5647049,0.8760376,0.9916649,1.556324,1.2893524
				c0.6803093,0.2981224,1.4985352,0.4446335,2.4634018,0.4490738c0.9559669-0.0044403,1.7872086-0.1509514,2.4942894-0.4401932
				c0.7026443-0.293354,1.2985611-0.7203178,1.7919998-1.2805595c0.4889946-0.5558853,0.8936005-1.2405243,1.2092896-2.0408592
				c-0.0044403,0.2224159-0.0132141,0.3869324-0.0132141,0.4980965c-0.0044632,0.1112747-0.0087891,0.1957512-0.0087891,0.2533264
				c0,0.0580292-0.0047684,0.115715-0.0047684,0.1733093c0,0.0624733,0,0.1557236,0,0.2757683
				c-0.0044632,0.3157082,0.0047684,0.6046028,0.0179977,0.8714867c0.0175705,0.2669106,0.066803,0.4982262,0.1511765,0.6935234
				c0.0844727,0.1957512,0.2265472,0.34692,0.4266357,0.4581947c0.2000809,0.1068344,0.4802017,0.1645164,0.8448029,0.1645164
				c0.1691666,0,0.3201218-0.0088806,0.4492874-0.0224419c0.128952-0.0175667,0.2622299-0.0443611,0.4046326-0.0843697V54.4011421
				L66.5745544,54.4011421z M64.2800217,46.9579315v2.5878868c0,0.4934387-0.08004,0.9824371-0.2309952,1.4717369
				c-0.155632,0.489109-0.3644867,0.9516373-0.6358376,1.387043c-0.2713242,0.440197-0.5870361,0.8271484-0.9471703,1.1697426
				c-0.4534302,0.4401741-0.9824371,0.7735367-1.5826874,0.9959717c-0.6050377,0.2265549-1.2853241,0.3378067-2.0456696,0.3378067
				c-0.858036,0-1.5871239-0.1289291-2.1873741-0.3869324c-0.6047096-0.2577896-1.0672379-0.6311607-1.3873672-1.1204834
				c-0.3156891-0.4846649-0.4757614-1.0804749-0.4802017-1.7739944c0.0044403-0.720295,0.1377182-1.3117714,0.4001656-1.7696419
				c0.2577667-0.4625282,0.6090431-0.8182449,1.0492172-1.0760117c0.4401932-0.2624474,0.9384003-0.448967,1.4895401-0.5690346
				c0.5470085-0.1200447,1.1160202-0.2000847,1.7030563-0.2400932c0.6535149-0.0492363,1.2449913-0.0892639,1.7695351-0.1157112
				c0.5246735-0.0311279,0.9872017-0.0711594,1.3873901-0.1200676c0.4046059-0.0535698,0.7470894-0.1379395,1.0272102-0.2579842
				C63.8889542,47.3624496,64.1155014,47.1891403,64.2800217,46.9579315z"/>
		</g>
	</g>
</g>
</svg>
