<?xml version="1.0" encoding="utf-8"?>
<!-- Generator: Adobe Illustrator 21.0.0, SVG Export Plug-In . SVG Version: 6.00 Build 0)  -->
<svg version="1.2" baseProfile="tiny" id="Layer_1" xmlns="http://www.w3.org/2000/svg" xmlns:xlink="http://www.w3.org/1999/xlink"
	 x="0px" y="0px" viewBox="0 0 960 196.0236206" xml:space="preserve">
<g>
	<polygon points="7.4101992,7.3393383 7.4101992,11.3369551 8.1999331,11.3369551 8.1999331,7.3393383 7.4101992,7.3393383 	"/>
	<g>
		<polygon points="3.7918234,8.4677248 6.6784735,8.073472 6.6286821,7.7335906 3.7420321,8.1278429 3.7918234,8.4677248 		"/>
		<path d="M24.9584904,3.1985915v3.7846777L10.3326025,7.0708899L9.9584904,7.6187921l0.3741121,0.5418162L24.9584904,8.248229
			v3.7793131L3.0625489,11.7763033l0.4006977-3.8918629l-0.4061351-4.194994L24.9584904,3.1985915z M23.9584904,6.0730867v-1.93749
			L4.0154433,4.5835352L4.354104,7.8871226l-0.354655,2.9843631l19.9590416,0.2297802V9.158411L9.9656181,9.0743675
			L8.9584904,7.6183243l1.0071278-1.4611931L23.9584904,6.0730867z"/>
	</g>
</g>
</svg>
