<?xml version="1.0" encoding="utf-8"?>
<!-- Generator: Adobe Illustrator 21.0.0, SVG Export Plug-In . SVG Version: 6.00 Build 0)  -->
<svg version="1.2" baseProfile="tiny" id="Layer_1" xmlns="http://www.w3.org/2000/svg" xmlns:xlink="http://www.w3.org/1999/xlink"
	 x="0px" y="0px" viewBox="0 0 960 196.0236206" xml:space="preserve">
<g>
	<polygon points="14.2028913,13.1400862 14.2028913,17.1377029 14.9926252,17.1377029 14.9926252,13.1400862 14.2028913,13.1400862 
			"/>
	<g>
		<polygon points="5.71767,4.41992 5.71767,16.0032539 6.0611792,16.0032539 6.0611792,4.41992 5.71767,4.41992 		"/>
		<path d="M18.0977573,2.6230295v6.970046l-7.6353254,0.0853233l-0.4820938,0.5335388l0.540988,0.5276117l7.5764313,0.0853233
			v6.9648228L3.3829713,16.3764839L3.94754,10.4706221l-0.5109694-6.201046L18.0977573,2.6230295z M17.0977573,8.7067556V3.5354695
			L4.2977757,5.1402249l0.5107126,5.3330092l-0.4706697,5.0221519l12.7599392,1.3923168V11.711194l-7.0057983-0.0818405L9,10.211482
			l1.1475763-1.4228859L17.0977573,8.7067556z"/>
	</g>
</g>
</svg>
