<?xml version="1.0" encoding="utf-8"?>
<!-- Generator: Adobe Illustrator 21.0.0, SVG Export Plug-In . SVG Version: 6.00 Build 0)  -->
<svg version="1.2" baseProfile="tiny" id="sticks_x5F_element"
	 xmlns="http://www.w3.org/2000/svg" xmlns:xlink="http://www.w3.org/1999/xlink" x="0px" y="0px"
	 viewBox="0 0 60.1778908 38.8171577" xml:space="preserve">
<g>
	<polygon fill="#231F20" points="8.5503387,12.7517004 8.5503387,12.7517004 8.4025068,12.7517004 2.9683158,26.0654583 
		3.14727,26.0654583 	"/>
	<polygon fill="#231F20" points="24.5373135,26.0654583 18.9130516,12.7521057 19.0841599,12.7521057 24.6947441,26.0654583 	"/>
	<polygon fill="#231F20" points="52.3453522,26.0654583 46.7210884,12.7521057 46.8921967,12.7521057 52.5027809,26.0654583 	"/>
	<polygon fill="#231F20" points="33.4939232,26.0654583 27.8696613,12.7521057 28.0407696,12.7521057 33.6513557,26.0654583 	"/>
	<rect x="7.9557514" y="12.7517004" fill="#231F20" width="0.1542251" height="13.3133802"/>
	<rect x="36.5108147" y="12.7517004" fill="#231F20" width="0.1542251" height="13.3133802"/>
	<rect x="13.1610756" y="12.7517004" fill="#231F20" width="0.1633928" height="13.3137579"/>
	<rect x="30.7605076" y="12.7517004" fill="#231F20" width="0.1633928" height="13.3133802"/>
	<rect x="40.2299767" y="12.7517004" fill="#231F20" width="0.1633928" height="13.3133802"/>
	<rect x="17.4326305" y="12.7521057" fill="#231F20" width="0.1423273" height="13.3133526"/>
	<rect x="50.1580658" y="12.7521057" fill="#231F20" width="0.1423273" height="13.3133526"/>
	<rect x="57.0672493" y="12.7521057" fill="#231F20" width="0.1423273" height="13.3133526"/>
	<rect x="11.8460999" y="12.7517004" fill="#231F20" width="0.163434" height="13.3137579"/>
	<rect x="35.4992828" y="12.7517004" fill="#231F20" width="0.163434" height="13.3137579"/>
	<rect x="20.124754" y="12.7517004" fill="#231F20" width="0.163434" height="13.3137579"/>
	<rect x="29.4225731" y="12.7517004" fill="#231F20" width="0.163434" height="13.3137579"/>
	<rect x="44.019165" y="12.7705145" fill="#231F20" width="0.1558611" height="13.2949438"/>
</g>
<g>
</g>
<g>
</g>
<g>
</g>
<g>
</g>
<g>
</g>
<g>
</g>
<g>
</g>
<g>
</g>
<g>
</g>
<g>
</g>
<g>
</g>
<g>
</g>
<g>
</g>
<g>
</g>
<g>
</g>
</svg>
