<?xml version="1.0" encoding="utf-8"?>
<!-- Generator: Adobe Illustrator 21.0.0, SVG Export Plug-In . SVG Version: 6.00 Build 0)  -->
<svg version="1.2" baseProfile="tiny" id="Layer_1" xmlns="http://www.w3.org/2000/svg" xmlns:xlink="http://www.w3.org/1999/xlink"
	 x="0px" y="0px" viewBox="0 0 960 196.0236206" xml:space="preserve">
<path d="M21.7138672,5.2060547c0.15625,0.4316406-0.3481445,1.4160156-1.5117188,2.9521484
	c-0.15625,0.2158203-0.3720703,0.5039063-0.6479492,0.8642578c-0.5283203,0.6601563-0.828125,1.0976563-0.8999023,1.3134766
	c-0.1201172,0.2763672-0.0786133,0.5458984,0.1259766,0.8105469c0.1196289,0.1435547,0.3959961,0.4199219,0.8276367,0.828125
	h0.0180664v0.0175781l0.0180664,0.0175781c0.9477539,0.8759766,1.5898438,1.6142578,1.9262695,2.2148438l0.0717773,0.1259766
	c0.0239258,0.0478516,0.0478516,0.1376953,0.0717773,0.2695313s0.0180664,0.2460938-0.0175781,0.3417969
	c-0.0361328,0.0966797-0.1201172,0.1865234-0.2519531,0.2705078c-0.1323242,0.0839844-0.3305779,0.1259766-0.5942383,0.1259766
	l-2.5561523,0.0537109c-0.1679688,0.0244141-0.3598633,0.0058594-0.5756836-0.0537109
	c-0.2163086-0.0605469-0.3901367-0.1376953-0.5219727-0.234375l-0.1982422-0.1074219
	c-0.2041016-0.1445313-0.4379883-0.3603516-0.7021484-0.6484375c-0.2636719-0.2880859-0.4921875-0.5458984-0.6835938-0.7744141
	C15.4199219,13.3662109,15.2163086,13.1679688,15,13c-0.2158203-0.1679688-0.4082031-0.2158203-0.5756836-0.1435547
	c-0.012207,0-0.0361328,0.0117188-0.0722656,0.0361328c-0.0361328,0.0234375-0.0961914,0.0712891-0.1801758,0.1435547
	s-0.1557617,0.1679688-0.2158203,0.2880859s-0.1142578,0.2939453-0.1621094,0.5214844
	c-0.0478516,0.2285156-0.0717773,0.4921875-0.0717773,0.7919922c0,0.0966797-0.012207,0.1865234-0.0361328,0.2705078
	s-0.0478516,0.1435547-0.0717773,0.1796875l-0.0361328,0.0546875c-0.1201172,0.1318359-0.300293,0.203125-0.5400391,0.2158203
	h-1.1518555c-0.4799805,0.0361328-0.9663086-0.0185547-1.4580078-0.1621094
	c-0.4921875-0.1445313-0.9360352-0.3183594-1.3320313-0.5224609c-0.3959961-0.203125-0.7382813-0.4257813-1.0258789-0.6660156
	c-0.2880859-0.2392578-0.5283203-0.4316406-0.7202148-0.5751953l-0.2519531-0.2529297
	c-0.0600586-0.0595703-0.1503906-0.1611328-0.2700195-0.3056641c-0.1201172-0.1435547-0.3598633-0.4433594-0.7202148-0.8994141
	c-0.3598633-0.4560547-0.7138672-0.9658203-1.0620117-1.5302734s-0.7558594-1.265625-1.2236328-2.1064453
	c-0.4682617-0.8398438-0.90625-1.7519531-1.3139648-2.7353516C2.4599609,5.4941406,2.4360352,5.4042969,2.4360352,5.3320313
	s0.012207-0.1259766,0.0361328-0.1621094l0.0361328-0.0537109C2.6162109,4.984375,2.8081055,4.9179688,3.0839844,4.9179688
	l2.7539063-0.0175781C5.921875,4.9121094,6,4.9306641,6.0722656,4.9541016
	C6.144043,4.9785156,6.1982422,5.0078125,6.2338867,5.0439453l0.0541992,0.0361328
	c0.1079102,0.0722656,0.1860352,0.1796875,0.2338867,0.3242188c0.1318359,0.3359375,0.2880859,0.6777344,0.4682617,1.0253906
	c0.1796875,0.3486328,0.3178711,0.625,0.4140625,0.828125L7.565918,7.5458984
	c0.1918945,0.4082031,0.378418,0.7558594,0.5581055,1.0439453c0.1801758,0.2880859,0.3422852,0.5166016,0.4858398,0.6845703
	c0.144043,0.1679688,0.2822266,0.2998047,0.4140625,0.3955078C9.15625,9.7666016,9.2700195,9.8144531,9.3662109,9.8144531
	c0.0957031,0,0.1860352-0.0185547,0.2700195-0.0546875l0.0537109-0.0537109
	c0.0239258-0.0234375,0.065918-0.0957031,0.1259766-0.2158203s0.1020508-0.2763672,0.1259766-0.4677734l0.090332-0.828125
	c0.0356445-0.3603516,0.0356445-0.7744141,0-1.2421875c-0.012207-0.2763672-0.0424805-0.5224609-0.090332-0.7382813
	S9.8520508,5.8427734,9.815918,5.7460938L9.7441406,5.6376953c-0.168457-0.2275391-0.4501953-0.3710938-0.8461914-0.4316406
	c-0.0961914-0.0234375-0.078125-0.1083984,0.0541992-0.2519531c0.1079102-0.1201172,0.2338867-0.2216797,0.3779297-0.3056641
	c0.3481445-0.1679688,1.1459961-0.2460938,2.394043-0.234375c0.5517578,0.0117188,1.0019531,0.0537109,1.3500977,0.1259766
	c0.144043,0.0361328,0.2578125,0.0839844,0.3417969,0.1445313C13.5,4.7441406,13.5717773,4.8222656,13.6323242,4.9179688
	c0.0595703,0.0966797,0.0898438,0.2041016,0.0898438,0.3242188s0.0117188,0.2695313,0.0361328,0.4501953
	c0.0239258,0.1796875,0.0239258,0.3662109,0,0.5576172c-0.0244141,0.1923828-0.0361328,0.4326172-0.0361328,0.7197266v0.828125
	l-0.0180664,0.4140625c-0.012207,0.2041016-0.012207,0.3662109,0,0.4863281L13.7402344,9.09375
	c0.0117188,0.1445313,0.0478516,0.2763672,0.1079102,0.3964844s0.1376953,0.2041016,0.2338867,0.2519531l0.1621094,0.0361328
	c0.0600586,0.0117188,0.1499023-0.0244141,0.2700195-0.1083984c0.1196289-0.0839844,0.2456055-0.1982422,0.3779297-0.3417969
	c0.1318359-0.1435547,0.3061523-0.3720703,0.5219727-0.6835938c0.2158203-0.3125,0.4438477-0.671875,0.684082-1.0800781
	c0.3959961-0.6962891,0.7558594-1.4462891,1.0800781-2.25c0.0239258-0.0722656,0.0537109-0.1318359,0.0898438-0.1806641
	c0.0361328-0.0478516,0.0722656-0.0830078,0.1079102-0.1074219l0.090332-0.0546875l0.1435547-0.0351563
	c0.0961914-0.0244141,0.1621094-0.0244141,0.1982422,0l2.8798828-0.0185547
	c0.2641602-0.0361328,0.4799805-0.0292969,0.6479492,0.0185547s0.2700195,0.1074219,0.3061523,0.1796875L21.7138672,5.2060547z"/>
</svg>
